<svg width="1440" height="1024" viewBox="0 0 1440 1024" fill="none" xmlns="http://www.w3.org/2000/svg">
<rect width="1440" height="1024" fill="#FFFCFC"/>
<path d="M556 422H554L553 422.5V428.5L554 429H556" stroke="#4951F2" stroke-width="2"/>
<path d="M543 429H545L546 429.5V432.5L545 433H543" stroke="#4951F2" stroke-width="2"/>
<path d="M553 424H550L549 424.75V426.25L550 427H552" stroke="#4951F2" stroke-width="2"/>
<rect x="523.5" y="447.5" width="48" height="6" stroke="#4951F2"/>
<path d="M566.5 442C566.5 442.73 565.714 443.5 564.5 443.5C563.286 443.5 562.5 442.73 562.5 442C562.5 441.27 563.286 440.5 564.5 440.5C565.714 440.5 566.5 441.27 566.5 442Z" stroke="#4951F2"/>
<mask id="path-6-inside-1_118_3" fill="white">
<path fill-rule="evenodd" clip-rule="evenodd" d="M509 391H984V468H509V391ZM512 394H583V465H512V394ZM625.126 427.238H629.326C629.192 426.1 628.885 425.091 628.406 424.208C627.933 423.326 627.319 422.582 626.565 421.974C625.81 421.361 624.944 420.894 623.966 420.575C622.995 420.255 621.94 420.095 620.802 420.095C619.076 420.095 617.523 420.491 616.142 421.284C614.762 422.07 613.669 423.214 612.863 424.717C612.058 426.219 611.655 428.04 611.655 430.182C611.655 432.317 612.052 434.135 612.844 435.637C613.643 437.14 614.73 438.287 616.104 439.08C617.485 439.872 619.051 440.268 620.802 440.268C622.061 440.268 623.19 440.08 624.187 439.703C625.19 439.319 626.053 438.801 626.776 438.15C627.504 437.491 628.083 436.746 628.511 435.915C628.946 435.078 629.217 434.209 629.326 433.308L625.126 433.288C625.031 433.812 624.858 434.279 624.609 434.688C624.366 435.097 624.059 435.446 623.688 435.733C623.318 436.015 622.892 436.229 622.413 436.376C621.94 436.523 621.425 436.596 620.869 436.596C619.879 436.596 619.006 436.353 618.252 435.868C617.498 435.382 616.909 434.663 616.488 433.71C616.072 432.758 615.864 431.582 615.864 430.182C615.864 428.82 616.072 427.663 616.488 426.711C616.903 425.752 617.488 425.023 618.242 424.525C618.996 424.02 619.882 423.767 620.898 423.767C621.461 423.767 621.982 423.847 622.461 424.007C622.947 424.167 623.375 424.397 623.746 424.697C624.117 424.998 624.42 425.362 624.657 425.79C624.893 426.212 625.05 426.695 625.126 427.238ZM633.84 440H638.289L639.745 435.522H646.835L648.289 440H652.738L645.969 420.364H640.618L633.84 440ZM645.783 432.282L643.37 424.851H643.217L640.799 432.282H645.783ZM663.191 420.364H658.071V440H662.098V427.171H662.261L667.343 439.904H670.085L675.167 427.219H675.33V440H679.357V420.364H674.237L668.829 433.557H668.599L663.191 420.364ZM708.092 427.238H712.292C712.158 426.1 711.851 425.091 711.372 424.208C710.898 423.326 710.285 422.582 709.531 421.974C708.776 421.361 707.91 420.894 706.932 420.575C705.961 420.255 704.906 420.095 703.768 420.095C702.042 420.095 700.489 420.491 699.108 421.284C697.728 422.07 696.635 423.214 695.829 424.717C695.024 426.219 694.621 428.04 694.621 430.182C694.621 432.317 695.017 434.135 695.81 435.637C696.609 437.14 697.696 438.287 699.07 439.08C700.451 439.872 702.017 440.268 703.768 440.268C705.027 440.268 706.156 440.08 707.153 439.703C708.156 439.319 709.019 438.801 709.742 438.15C710.47 437.491 711.049 436.746 711.477 435.915C711.912 435.078 712.183 434.209 712.292 433.308L708.092 433.288C707.997 433.812 707.824 434.279 707.575 434.688C707.332 435.097 707.025 435.446 706.654 435.733C706.283 436.015 705.858 436.229 705.379 436.376C704.906 436.523 704.391 436.596 703.835 436.596C702.845 436.596 701.972 436.353 701.218 435.868C700.463 435.382 699.875 434.663 699.454 433.71C699.038 432.758 698.83 431.582 698.83 430.182C698.83 428.82 699.038 427.663 699.454 426.711C699.869 425.752 700.454 425.023 701.208 424.525C701.962 424.02 702.848 423.767 703.864 423.767C704.427 423.767 704.948 423.847 705.427 424.007C705.913 424.167 706.341 424.397 706.712 424.697C707.082 424.998 707.386 425.362 707.623 425.79C707.859 426.212 708.016 426.695 708.092 427.238ZM731.077 440H734.663V420.364H730.531V432.713H730.358L721.883 420.364H718.239V440H722.391V427.641H722.535L731.077 440ZM754.19 427.238H758.389C758.255 426.1 757.948 425.091 757.469 424.208C756.996 423.326 756.382 422.582 755.628 421.974C754.874 421.361 754.007 420.894 753.029 420.575C752.058 420.255 751.003 420.095 749.865 420.095C748.14 420.095 746.586 420.491 745.206 421.284C743.825 422.07 742.732 423.214 741.926 424.717C741.121 426.219 740.718 428.04 740.718 430.182C740.718 432.317 741.115 434.135 741.907 435.637C742.706 437.14 743.793 438.287 745.167 439.08C746.548 439.872 748.114 440.268 749.865 440.268C751.125 440.268 752.253 440.08 753.25 439.703C754.254 439.319 755.116 438.801 755.839 438.15C756.567 437.491 757.146 436.746 757.574 435.915C758.009 435.078 758.281 434.209 758.389 433.308L754.19 433.288C754.094 433.812 753.921 434.279 753.672 434.688C753.429 435.097 753.122 435.446 752.751 435.733C752.381 436.015 751.956 436.229 751.476 436.376C751.003 436.523 750.489 436.596 749.933 436.596C748.942 436.596 748.069 436.353 747.315 435.868C746.561 435.382 745.973 434.663 745.551 433.71C745.135 432.758 744.928 431.582 744.928 430.182C744.928 428.82 745.135 427.663 745.551 426.711C745.966 425.752 746.551 425.023 747.305 424.525C748.06 424.02 748.945 423.767 749.961 423.767C750.524 423.767 751.045 423.847 751.524 424.007C752.01 424.167 752.438 424.397 752.809 424.697C753.18 424.998 753.483 425.362 753.72 425.79C753.956 426.212 754.113 426.695 754.19 427.238ZM783.22 424.208C783.802 424.637 784.131 425.238 784.208 426.011H788.187C788.168 424.841 787.854 423.812 787.247 422.924C786.64 422.035 785.79 421.342 784.697 420.843C783.61 420.344 782.338 420.095 780.881 420.095C779.449 420.095 778.17 420.344 777.045 420.843C775.92 421.342 775.035 422.035 774.389 422.924C773.75 423.812 773.434 424.851 773.44 426.04C773.434 427.491 773.91 428.645 774.869 429.501C775.828 430.358 777.135 430.987 778.79 431.39L780.929 431.927C781.644 432.099 782.249 432.291 782.741 432.502C783.239 432.713 783.616 432.969 783.872 433.269C784.134 433.57 784.265 433.94 784.265 434.381C784.265 434.854 784.121 435.273 783.834 435.637C783.546 436.002 783.14 436.286 782.616 436.491C782.098 436.695 781.488 436.798 780.785 436.798C780.069 436.798 779.426 436.689 778.858 436.472C778.295 436.248 777.844 435.919 777.506 435.484C777.173 435.043 776.985 434.493 776.94 433.835H772.922C772.954 435.248 773.296 436.433 773.948 437.392C774.607 438.344 775.521 439.064 776.691 439.549C777.867 440.035 779.247 440.278 780.833 440.278C782.431 440.278 783.795 440.038 784.927 439.559C786.065 439.073 786.934 438.392 787.535 437.517C788.142 436.635 788.449 435.593 788.455 434.391C788.449 433.573 788.299 432.847 788.005 432.214C787.717 431.582 787.311 431.032 786.787 430.565C786.263 430.099 785.643 429.706 784.927 429.386C784.211 429.066 783.425 428.811 782.568 428.619L780.804 428.197C780.376 428.101 779.973 427.986 779.596 427.852C779.219 427.711 778.886 427.548 778.599 427.363C778.311 427.171 778.084 426.944 777.918 426.682C777.758 426.42 777.685 426.113 777.697 425.762C777.697 425.34 777.819 424.963 778.062 424.63C778.311 424.298 778.669 424.039 779.136 423.854C779.602 423.662 780.174 423.566 780.852 423.566C781.849 423.566 782.638 423.78 783.22 424.208ZM811.045 435.647C811.857 434.145 812.262 432.323 812.262 430.182C812.262 428.04 811.857 426.219 811.045 424.717C810.239 423.214 809.14 422.07 807.746 421.284C806.359 420.491 804.8 420.095 803.067 420.095C801.322 420.095 799.756 420.491 798.369 421.284C796.982 422.07 795.886 423.214 795.081 424.717C794.275 426.219 793.873 428.04 793.873 430.182C793.873 432.317 794.275 434.135 795.081 435.637C795.886 437.14 796.982 438.287 798.369 439.08C799.756 439.872 801.322 440.268 803.067 440.268C804.8 440.268 806.359 439.875 807.746 439.089C809.14 438.297 810.239 437.149 811.045 435.647ZM807.43 426.673C807.846 427.625 808.053 428.795 808.053 430.182C808.053 431.569 807.846 432.739 807.43 433.691C807.021 434.643 806.442 435.366 805.695 435.858C804.947 436.35 804.071 436.596 803.067 436.596C802.064 436.596 801.188 436.35 800.44 435.858C799.692 435.366 799.111 434.643 798.695 433.691C798.286 432.739 798.082 431.569 798.082 430.182C798.082 428.795 798.286 427.625 798.695 426.673C799.111 425.72 799.692 424.998 800.44 424.506C801.188 424.013 802.064 423.767 803.067 423.767C804.071 423.767 804.947 424.013 805.695 424.506C806.442 424.998 807.021 425.72 807.43 426.673ZM822.459 420.364H818.308V440H830.878V436.577H822.459V420.364ZM852.878 420.364H848.726V432.761C848.726 433.509 848.56 434.174 848.227 434.755C847.901 435.337 847.438 435.794 846.837 436.126C846.243 436.459 845.543 436.625 844.737 436.625C843.938 436.625 843.238 436.459 842.638 436.126C842.037 435.794 841.57 435.337 841.238 434.755C840.912 434.174 840.749 433.509 840.749 432.761V420.364H836.597V433.116C836.597 434.548 836.936 435.8 837.613 436.874C838.291 437.948 839.24 438.786 840.461 439.386C841.682 439.981 843.107 440.278 844.737 440.278C846.361 440.278 847.783 439.981 849.004 439.386C850.225 438.786 851.174 437.948 851.852 436.874C852.536 435.8 852.878 434.548 852.878 433.116V420.364ZM858.516 420.364V423.787H864.527V440H868.631V423.787H874.643V420.364H858.516ZM880.269 440H884.42V420.364H880.269V440ZM907.633 435.647C908.445 434.145 908.851 432.323 908.851 430.182C908.851 428.04 908.445 426.219 907.633 424.717C906.828 423.214 905.728 422.07 904.335 421.284C902.948 420.491 901.388 420.095 899.656 420.095C897.911 420.095 896.345 420.491 894.958 421.284C893.571 422.07 892.474 423.214 891.669 424.717C890.863 426.219 890.461 428.04 890.461 430.182C890.461 432.317 890.863 434.135 891.669 435.637C892.474 437.14 893.571 438.287 894.958 439.08C896.345 439.872 897.911 440.268 899.656 440.268C901.388 440.268 902.948 439.875 904.335 439.089C905.728 438.297 906.828 437.149 907.633 435.647ZM904.018 426.673C904.434 427.625 904.642 428.795 904.642 430.182C904.642 431.569 904.434 432.739 904.018 433.691C903.609 434.643 903.031 435.366 902.283 435.858C901.535 436.35 900.659 436.596 899.656 436.596C898.652 436.596 897.777 436.35 897.029 435.858C896.281 435.366 895.699 434.643 895.284 433.691C894.875 432.739 894.67 431.569 894.67 430.182C894.67 428.795 894.875 427.625 895.284 426.673C895.699 425.72 896.281 424.998 897.029 424.506C897.777 424.013 898.652 423.767 899.656 423.767C900.659 423.767 901.535 424.013 902.283 424.506C903.031 424.998 903.609 425.72 904.018 426.673ZM927.734 440H931.32V420.364H927.188V432.713H927.015L918.54 420.364H914.896V440H919.048V427.641H919.192L927.734 440ZM947.385 424.208C947.967 424.637 948.296 425.238 948.373 426.011H952.352C952.333 424.841 952.02 423.812 951.412 422.924C950.805 422.035 949.955 421.342 948.862 420.843C947.775 420.344 946.503 420.095 945.046 420.095C943.614 420.095 942.336 420.344 941.211 420.843C940.086 421.342 939.2 422.035 938.555 422.924C937.916 423.812 937.599 424.851 937.606 426.04C937.599 427.491 938.075 428.645 939.034 429.501C939.993 430.358 941.3 430.987 942.956 431.39L945.094 431.927C945.81 432.099 946.414 432.291 946.906 432.502C947.405 432.713 947.782 432.969 948.037 433.269C948.299 433.57 948.43 433.94 948.43 434.381C948.43 434.854 948.287 435.273 947.999 435.637C947.711 436.002 947.305 436.286 946.781 436.491C946.264 436.695 945.653 436.798 944.95 436.798C944.234 436.798 943.592 436.689 943.023 436.472C942.46 436.248 942.01 435.919 941.671 435.484C941.339 435.043 941.15 434.493 941.105 433.835H937.088C937.12 435.248 937.462 436.433 938.114 437.392C938.772 438.344 939.686 439.064 940.856 439.549C942.032 440.035 943.413 440.278 944.998 440.278C946.596 440.278 947.961 440.038 949.092 439.559C950.23 439.073 951.099 438.392 951.7 437.517C952.307 436.635 952.614 435.593 952.62 434.391C952.614 433.573 952.464 432.847 952.17 432.214C951.882 431.582 951.476 431.032 950.952 430.565C950.428 430.099 949.808 429.706 949.092 429.386C948.376 429.066 947.59 428.811 946.733 428.619L944.969 428.197C944.541 428.101 944.138 427.986 943.761 427.852C943.384 427.711 943.052 427.548 942.764 427.363C942.476 427.171 942.249 426.944 942.083 426.682C941.923 426.42 941.85 426.113 941.863 425.762C941.863 425.34 941.984 424.963 942.227 424.63C942.476 424.298 942.834 424.039 943.301 423.854C943.767 423.662 944.34 423.566 945.017 423.566C946.014 423.566 946.804 423.78 947.385 424.208Z"/>
</mask>
<path fill-rule="evenodd" clip-rule="evenodd" d="M509 391H984V468H509V391ZM512 394H583V465H512V394ZM625.126 427.238H629.326C629.192 426.1 628.885 425.091 628.406 424.208C627.933 423.326 627.319 422.582 626.565 421.974C625.81 421.361 624.944 420.894 623.966 420.575C622.995 420.255 621.94 420.095 620.802 420.095C619.076 420.095 617.523 420.491 616.142 421.284C614.762 422.07 613.669 423.214 612.863 424.717C612.058 426.219 611.655 428.04 611.655 430.182C611.655 432.317 612.052 434.135 612.844 435.637C613.643 437.14 614.73 438.287 616.104 439.08C617.485 439.872 619.051 440.268 620.802 440.268C622.061 440.268 623.19 440.08 624.187 439.703C625.19 439.319 626.053 438.801 626.776 438.15C627.504 437.491 628.083 436.746 628.511 435.915C628.946 435.078 629.217 434.209 629.326 433.308L625.126 433.288C625.031 433.812 624.858 434.279 624.609 434.688C624.366 435.097 624.059 435.446 623.688 435.733C623.318 436.015 622.892 436.229 622.413 436.376C621.94 436.523 621.425 436.596 620.869 436.596C619.879 436.596 619.006 436.353 618.252 435.868C617.498 435.382 616.909 434.663 616.488 433.71C616.072 432.758 615.864 431.582 615.864 430.182C615.864 428.82 616.072 427.663 616.488 426.711C616.903 425.752 617.488 425.023 618.242 424.525C618.996 424.02 619.882 423.767 620.898 423.767C621.461 423.767 621.982 423.847 622.461 424.007C622.947 424.167 623.375 424.397 623.746 424.697C624.117 424.998 624.42 425.362 624.657 425.79C624.893 426.212 625.05 426.695 625.126 427.238ZM633.84 440H638.289L639.745 435.522H646.835L648.289 440H652.738L645.969 420.364H640.618L633.84 440ZM645.783 432.282L643.37 424.851H643.217L640.799 432.282H645.783ZM663.191 420.364H658.071V440H662.098V427.171H662.261L667.343 439.904H670.085L675.167 427.219H675.33V440H679.357V420.364H674.237L668.829 433.557H668.599L663.191 420.364ZM708.092 427.238H712.292C712.158 426.1 711.851 425.091 711.372 424.208C710.898 423.326 710.285 422.582 709.531 421.974C708.776 421.361 707.91 420.894 706.932 420.575C705.961 420.255 704.906 420.095 703.768 420.095C702.042 420.095 700.489 420.491 699.108 421.284C697.728 422.07 696.635 423.214 695.829 424.717C695.024 426.219 694.621 428.04 694.621 430.182C694.621 432.317 695.017 434.135 695.81 435.637C696.609 437.14 697.696 438.287 699.07 439.08C700.451 439.872 702.017 440.268 703.768 440.268C705.027 440.268 706.156 440.08 707.153 439.703C708.156 439.319 709.019 438.801 709.742 438.15C710.47 437.491 711.049 436.746 711.477 435.915C711.912 435.078 712.183 434.209 712.292 433.308L708.092 433.288C707.997 433.812 707.824 434.279 707.575 434.688C707.332 435.097 707.025 435.446 706.654 435.733C706.283 436.015 705.858 436.229 705.379 436.376C704.906 436.523 704.391 436.596 703.835 436.596C702.845 436.596 701.972 436.353 701.218 435.868C700.463 435.382 699.875 434.663 699.454 433.71C699.038 432.758 698.83 431.582 698.83 430.182C698.83 428.82 699.038 427.663 699.454 426.711C699.869 425.752 700.454 425.023 701.208 424.525C701.962 424.02 702.848 423.767 703.864 423.767C704.427 423.767 704.948 423.847 705.427 424.007C705.913 424.167 706.341 424.397 706.712 424.697C707.082 424.998 707.386 425.362 707.623 425.79C707.859 426.212 708.016 426.695 708.092 427.238ZM731.077 440H734.663V420.364H730.531V432.713H730.358L721.883 420.364H718.239V440H722.391V427.641H722.535L731.077 440ZM754.19 427.238H758.389C758.255 426.1 757.948 425.091 757.469 424.208C756.996 423.326 756.382 422.582 755.628 421.974C754.874 421.361 754.007 420.894 753.029 420.575C752.058 420.255 751.003 420.095 749.865 420.095C748.14 420.095 746.586 420.491 745.206 421.284C743.825 422.07 742.732 423.214 741.926 424.717C741.121 426.219 740.718 428.04 740.718 430.182C740.718 432.317 741.115 434.135 741.907 435.637C742.706 437.14 743.793 438.287 745.167 439.08C746.548 439.872 748.114 440.268 749.865 440.268C751.125 440.268 752.253 440.08 753.25 439.703C754.254 439.319 755.116 438.801 755.839 438.15C756.567 437.491 757.146 436.746 757.574 435.915C758.009 435.078 758.281 434.209 758.389 433.308L754.19 433.288C754.094 433.812 753.921 434.279 753.672 434.688C753.429 435.097 753.122 435.446 752.751 435.733C752.381 436.015 751.956 436.229 751.476 436.376C751.003 436.523 750.489 436.596 749.933 436.596C748.942 436.596 748.069 436.353 747.315 435.868C746.561 435.382 745.973 434.663 745.551 433.71C745.135 432.758 744.928 431.582 744.928 430.182C744.928 428.82 745.135 427.663 745.551 426.711C745.966 425.752 746.551 425.023 747.305 424.525C748.06 424.02 748.945 423.767 749.961 423.767C750.524 423.767 751.045 423.847 751.524 424.007C752.01 424.167 752.438 424.397 752.809 424.697C753.18 424.998 753.483 425.362 753.72 425.79C753.956 426.212 754.113 426.695 754.19 427.238ZM783.22 424.208C783.802 424.637 784.131 425.238 784.208 426.011H788.187C788.168 424.841 787.854 423.812 787.247 422.924C786.64 422.035 785.79 421.342 784.697 420.843C783.61 420.344 782.338 420.095 780.881 420.095C779.449 420.095 778.17 420.344 777.045 420.843C775.92 421.342 775.035 422.035 774.389 422.924C773.75 423.812 773.434 424.851 773.44 426.04C773.434 427.491 773.91 428.645 774.869 429.501C775.828 430.358 777.135 430.987 778.79 431.39L780.929 431.927C781.644 432.099 782.249 432.291 782.741 432.502C783.239 432.713 783.616 432.969 783.872 433.269C784.134 433.57 784.265 433.94 784.265 434.381C784.265 434.854 784.121 435.273 783.834 435.637C783.546 436.002 783.14 436.286 782.616 436.491C782.098 436.695 781.488 436.798 780.785 436.798C780.069 436.798 779.426 436.689 778.858 436.472C778.295 436.248 777.844 435.919 777.506 435.484C777.173 435.043 776.985 434.493 776.94 433.835H772.922C772.954 435.248 773.296 436.433 773.948 437.392C774.607 438.344 775.521 439.064 776.691 439.549C777.867 440.035 779.247 440.278 780.833 440.278C782.431 440.278 783.795 440.038 784.927 439.559C786.065 439.073 786.934 438.392 787.535 437.517C788.142 436.635 788.449 435.593 788.455 434.391C788.449 433.573 788.299 432.847 788.005 432.214C787.717 431.582 787.311 431.032 786.787 430.565C786.263 430.099 785.643 429.706 784.927 429.386C784.211 429.066 783.425 428.811 782.568 428.619L780.804 428.197C780.376 428.101 779.973 427.986 779.596 427.852C779.219 427.711 778.886 427.548 778.599 427.363C778.311 427.171 778.084 426.944 777.918 426.682C777.758 426.42 777.685 426.113 777.697 425.762C777.697 425.34 777.819 424.963 778.062 424.63C778.311 424.298 778.669 424.039 779.136 423.854C779.602 423.662 780.174 423.566 780.852 423.566C781.849 423.566 782.638 423.78 783.22 424.208ZM811.045 435.647C811.857 434.145 812.262 432.323 812.262 430.182C812.262 428.04 811.857 426.219 811.045 424.717C810.239 423.214 809.14 422.07 807.746 421.284C806.359 420.491 804.8 420.095 803.067 420.095C801.322 420.095 799.756 420.491 798.369 421.284C796.982 422.07 795.886 423.214 795.081 424.717C794.275 426.219 793.873 428.04 793.873 430.182C793.873 432.317 794.275 434.135 795.081 435.637C795.886 437.14 796.982 438.287 798.369 439.08C799.756 439.872 801.322 440.268 803.067 440.268C804.8 440.268 806.359 439.875 807.746 439.089C809.14 438.297 810.239 437.149 811.045 435.647ZM807.43 426.673C807.846 427.625 808.053 428.795 808.053 430.182C808.053 431.569 807.846 432.739 807.43 433.691C807.021 434.643 806.442 435.366 805.695 435.858C804.947 436.35 804.071 436.596 803.067 436.596C802.064 436.596 801.188 436.35 800.44 435.858C799.692 435.366 799.111 434.643 798.695 433.691C798.286 432.739 798.082 431.569 798.082 430.182C798.082 428.795 798.286 427.625 798.695 426.673C799.111 425.72 799.692 424.998 800.44 424.506C801.188 424.013 802.064 423.767 803.067 423.767C804.071 423.767 804.947 424.013 805.695 424.506C806.442 424.998 807.021 425.72 807.43 426.673ZM822.459 420.364H818.308V440H830.878V436.577H822.459V420.364ZM852.878 420.364H848.726V432.761C848.726 433.509 848.56 434.174 848.227 434.755C847.901 435.337 847.438 435.794 846.837 436.126C846.243 436.459 845.543 436.625 844.737 436.625C843.938 436.625 843.238 436.459 842.638 436.126C842.037 435.794 841.57 435.337 841.238 434.755C840.912 434.174 840.749 433.509 840.749 432.761V420.364H836.597V433.116C836.597 434.548 836.936 435.8 837.613 436.874C838.291 437.948 839.24 438.786 840.461 439.386C841.682 439.981 843.107 440.278 844.737 440.278C846.361 440.278 847.783 439.981 849.004 439.386C850.225 438.786 851.174 437.948 851.852 436.874C852.536 435.8 852.878 434.548 852.878 433.116V420.364ZM858.516 420.364V423.787H864.527V440H868.631V423.787H874.643V420.364H858.516ZM880.269 440H884.42V420.364H880.269V440ZM907.633 435.647C908.445 434.145 908.851 432.323 908.851 430.182C908.851 428.04 908.445 426.219 907.633 424.717C906.828 423.214 905.728 422.07 904.335 421.284C902.948 420.491 901.388 420.095 899.656 420.095C897.911 420.095 896.345 420.491 894.958 421.284C893.571 422.07 892.474 423.214 891.669 424.717C890.863 426.219 890.461 428.04 890.461 430.182C890.461 432.317 890.863 434.135 891.669 435.637C892.474 437.14 893.571 438.287 894.958 439.08C896.345 439.872 897.911 440.268 899.656 440.268C901.388 440.268 902.948 439.875 904.335 439.089C905.728 438.297 906.828 437.149 907.633 435.647ZM904.018 426.673C904.434 427.625 904.642 428.795 904.642 430.182C904.642 431.569 904.434 432.739 904.018 433.691C903.609 434.643 903.031 435.366 902.283 435.858C901.535 436.35 900.659 436.596 899.656 436.596C898.652 436.596 897.777 436.35 897.029 435.858C896.281 435.366 895.699 434.643 895.284 433.691C894.875 432.739 894.67 431.569 894.67 430.182C894.67 428.795 894.875 427.625 895.284 426.673C895.699 425.72 896.281 424.998 897.029 424.506C897.777 424.013 898.652 423.767 899.656 423.767C900.659 423.767 901.535 424.013 902.283 424.506C903.031 424.998 903.609 425.72 904.018 426.673ZM927.734 440H931.32V420.364H927.188V432.713H927.015L918.54 420.364H914.896V440H919.048V427.641H919.192L927.734 440ZM947.385 424.208C947.967 424.637 948.296 425.238 948.373 426.011H952.352C952.333 424.841 952.02 423.812 951.412 422.924C950.805 422.035 949.955 421.342 948.862 420.843C947.775 420.344 946.503 420.095 945.046 420.095C943.614 420.095 942.336 420.344 941.211 420.843C940.086 421.342 939.2 422.035 938.555 422.924C937.916 423.812 937.599 424.851 937.606 426.04C937.599 427.491 938.075 428.645 939.034 429.501C939.993 430.358 941.3 430.987 942.956 431.39L945.094 431.927C945.81 432.099 946.414 432.291 946.906 432.502C947.405 432.713 947.782 432.969 948.037 433.269C948.299 433.57 948.43 433.94 948.43 434.381C948.43 434.854 948.287 435.273 947.999 435.637C947.711 436.002 947.305 436.286 946.781 436.491C946.264 436.695 945.653 436.798 944.95 436.798C944.234 436.798 943.592 436.689 943.023 436.472C942.46 436.248 942.01 435.919 941.671 435.484C941.339 435.043 941.15 434.493 941.105 433.835H937.088C937.12 435.248 937.462 436.433 938.114 437.392C938.772 438.344 939.686 439.064 940.856 439.549C942.032 440.035 943.413 440.278 944.998 440.278C946.596 440.278 947.961 440.038 949.092 439.559C950.23 439.073 951.099 438.392 951.7 437.517C952.307 436.635 952.614 435.593 952.62 434.391C952.614 433.573 952.464 432.847 952.17 432.214C951.882 431.582 951.476 431.032 950.952 430.565C950.428 430.099 949.808 429.706 949.092 429.386C948.376 429.066 947.59 428.811 946.733 428.619L944.969 428.197C944.541 428.101 944.138 427.986 943.761 427.852C943.384 427.711 943.052 427.548 942.764 427.363C942.476 427.171 942.249 426.944 942.083 426.682C941.923 426.42 941.85 426.113 941.863 425.762C941.863 425.34 941.984 424.963 942.227 424.63C942.476 424.298 942.834 424.039 943.301 423.854C943.767 423.662 944.34 423.566 945.017 423.566C946.014 423.566 946.804 423.78 947.385 424.208Z" fill="#4951F2"/>
<path d="M984 391H985V390H984V391ZM509 391V390H508V391H509ZM984 468V469H985V468H984ZM509 468H508V469H509V468ZM583 394H584V393H583V394ZM512 394V393H511V394H512ZM583 465V466H584V465H583ZM512 465H511V466H512V465ZM629.326 427.238V428.238H630.451L630.319 427.121L629.326 427.238ZM625.126 427.238L624.136 427.378L624.258 428.238H625.126V427.238ZM628.406 424.208L627.524 424.681L627.527 424.686L628.406 424.208ZM626.565 421.974L625.934 422.75L625.938 422.753L626.565 421.974ZM623.966 420.575L623.654 421.525L623.656 421.525L623.966 420.575ZM616.142 421.284L616.637 422.153L616.64 422.151L616.142 421.284ZM612.863 424.717L613.745 425.189L613.745 425.189L612.863 424.717ZM612.844 435.637L611.96 436.104L611.961 436.107L612.844 435.637ZM616.104 439.08L615.604 439.946L615.606 439.947L616.104 439.08ZM624.187 439.703L624.541 440.638L624.544 440.637L624.187 439.703ZM626.776 438.15L627.446 438.892L627.446 438.892L626.776 438.15ZM628.511 435.915L627.623 435.455L627.622 435.457L628.511 435.915ZM629.326 433.308L630.319 433.427L630.453 432.313L629.331 432.308L629.326 433.308ZM625.126 433.288L625.131 432.288L624.293 432.285L624.143 433.108L625.126 433.288ZM624.609 434.688L623.755 434.168L623.749 434.178L624.609 434.688ZM623.688 435.733L624.293 436.53L624.301 436.523L623.688 435.733ZM622.413 436.376L622.12 435.42L622.116 435.421L622.413 436.376ZM618.252 435.868L618.793 435.027L618.793 435.027L618.252 435.868ZM616.488 433.71L615.571 434.11L615.573 434.115L616.488 433.71ZM616.488 426.711L617.404 427.111L617.405 427.109L616.488 426.711ZM618.242 424.525L618.794 425.359L618.799 425.356L618.242 424.525ZM622.461 424.007L622.145 424.956L622.149 424.957L622.461 424.007ZM623.746 424.697L623.116 425.474L623.116 425.474L623.746 424.697ZM624.657 425.79L623.781 426.274L623.784 426.279L624.657 425.79ZM638.289 440V441H639.015L639.24 440.309L638.289 440ZM633.84 440L632.894 439.674L632.437 441H633.84V440ZM639.745 435.522V434.522H639.019L638.794 435.213L639.745 435.522ZM646.835 435.522L647.786 435.214L647.562 434.522H646.835V435.522ZM648.289 440L647.338 440.309L647.562 441H648.289V440ZM652.738 440V441H654.14L653.683 439.674L652.738 440ZM645.969 420.364L646.914 420.038L646.682 419.364H645.969V420.364ZM640.618 420.364V419.364H639.906L639.673 420.037L640.618 420.364ZM645.783 432.282V433.282H647.159L646.734 431.973L645.783 432.282ZM643.37 424.851L644.321 424.542L644.097 423.851H643.37V424.851ZM643.217 424.851V423.851H642.491L642.266 424.541L643.217 424.851ZM640.799 432.282L639.849 431.972L639.423 433.282H640.799V432.282ZM658.071 420.364V419.364H657.071V420.364H658.071ZM663.191 420.364L664.117 419.984L663.862 419.364H663.191V420.364ZM658.071 440H657.071V441H658.071V440ZM662.098 440V441H663.098V440H662.098ZM662.098 427.171V426.171H661.098V427.171H662.098ZM662.261 427.171L663.19 426.8L662.939 426.171H662.261V427.171ZM667.343 439.904L666.414 440.275L666.665 440.904H667.343V439.904ZM670.085 439.904V440.904H670.762L671.013 440.276L670.085 439.904ZM675.167 427.219V426.219H674.49L674.238 426.847L675.167 427.219ZM675.33 427.219H676.33V426.219H675.33V427.219ZM675.33 440H674.33V441H675.33V440ZM679.357 440V441H680.357V440H679.357ZM679.357 420.364H680.357V419.364H679.357V420.364ZM674.237 420.364V419.364H673.566L673.311 419.984L674.237 420.364ZM668.829 433.557V434.557H669.5L669.754 433.936L668.829 433.557ZM668.599 433.557L667.674 433.936L667.928 434.557H668.599V433.557ZM712.292 427.238V428.238H713.417L713.285 427.121L712.292 427.238ZM708.092 427.238L707.102 427.378L707.224 428.238H708.092V427.238ZM711.372 424.208L710.49 424.681L710.493 424.686L711.372 424.208ZM709.531 421.974L708.9 422.75L708.903 422.753L709.531 421.974ZM706.932 420.575L706.62 421.525L706.622 421.525L706.932 420.575ZM699.108 421.284L699.603 422.153L699.606 422.151L699.108 421.284ZM695.829 424.717L696.711 425.189L696.711 425.189L695.829 424.717ZM695.81 435.637L694.926 436.104L694.927 436.107L695.81 435.637ZM699.07 439.08L698.57 439.946L698.572 439.947L699.07 439.08ZM707.153 439.703L707.507 440.638L707.51 440.637L707.153 439.703ZM709.742 438.15L710.412 438.892L710.412 438.891L709.742 438.15ZM711.477 435.915L710.589 435.455L710.588 435.457L711.477 435.915ZM712.292 433.308L713.285 433.427L713.419 432.313L712.297 432.308L712.292 433.308ZM708.092 433.288L708.097 432.288L707.259 432.285L707.109 433.108L708.092 433.288ZM707.575 434.688L706.721 434.168L706.715 434.178L707.575 434.688ZM706.654 435.733L707.259 436.53L707.267 436.523L706.654 435.733ZM705.379 436.376L705.086 435.42L705.082 435.421L705.379 436.376ZM701.218 435.868L700.676 436.708L700.676 436.708L701.218 435.868ZM699.454 433.71L698.537 434.11L698.539 434.115L699.454 433.71ZM699.454 426.711L700.37 427.111L700.371 427.109L699.454 426.711ZM701.208 424.525L701.76 425.359L701.764 425.356L701.208 424.525ZM705.427 424.007L705.111 424.956L705.114 424.957L705.427 424.007ZM706.712 424.697L707.341 423.921L707.341 423.921L706.712 424.697ZM707.623 425.79L706.747 426.274L706.75 426.279L707.623 425.79ZM734.663 440V441H735.663V440H734.663ZM731.077 440L730.255 440.569L730.553 441H731.077V440ZM734.663 420.364H735.663V419.364H734.663V420.364ZM730.531 420.364V419.364H729.531V420.364H730.531ZM730.531 432.713V433.713H731.531V432.713H730.531ZM730.358 432.713L729.534 433.279L729.832 433.713H730.358V432.713ZM721.883 420.364L722.707 419.798L722.409 419.364H721.883V420.364ZM718.239 420.364V419.364H717.239V420.364H718.239ZM718.239 440H717.239V441H718.239V440ZM722.391 440V441H723.391V440H722.391ZM722.391 427.641V426.641H721.391V427.641H722.391ZM722.535 427.641L723.357 427.072L723.059 426.641H722.535V427.641ZM758.389 427.238V428.238H759.514L759.382 427.121L758.389 427.238ZM754.19 427.238L753.199 427.378L753.321 428.238H754.19V427.238ZM757.469 424.208L756.587 424.681L756.59 424.686L757.469 424.208ZM755.628 421.974L754.997 422.75L755.001 422.753L755.628 421.974ZM753.029 420.575L752.717 421.525L752.719 421.525L753.029 420.575ZM745.206 421.284L745.7 422.153L745.703 422.151L745.206 421.284ZM741.926 424.717L741.045 424.244L741.045 424.244L741.926 424.717ZM741.907 435.637L741.023 436.104L741.024 436.107L741.907 435.637ZM745.167 439.08L744.668 439.946L744.669 439.947L745.167 439.08ZM753.25 439.703L753.604 440.638L753.607 440.637L753.25 439.703ZM755.839 438.15L756.509 438.892L756.509 438.892L755.839 438.15ZM757.574 435.915L756.687 435.455L756.685 435.457L757.574 435.915ZM758.389 433.308L759.382 433.427L759.516 432.313L758.394 432.308L758.389 433.308ZM754.19 433.288L754.194 432.288L753.357 432.285L753.206 433.108L754.19 433.288ZM753.672 434.688L752.818 434.168L752.812 434.178L753.672 434.688ZM752.751 435.733L753.356 436.53L753.364 436.523L752.751 435.733ZM751.476 436.376L751.183 435.42L751.179 435.421L751.476 436.376ZM745.551 433.71L744.634 434.11L744.636 434.115L745.551 433.71ZM745.551 426.711L746.467 427.111L746.468 427.109L745.551 426.711ZM747.305 424.525L747.857 425.359L747.862 425.356L747.305 424.525ZM751.524 424.007L751.208 424.956L751.212 424.957L751.524 424.007ZM753.72 425.79L752.844 426.274L752.848 426.279L753.72 425.79ZM784.208 426.011L783.213 426.11L783.302 427.011H784.208V426.011ZM783.22 424.208L783.813 423.403L783.813 423.403L783.22 424.208ZM788.187 426.011V427.011H789.203L789.187 425.995L788.187 426.011ZM784.697 420.843L784.28 421.752L784.282 421.753L784.697 420.843ZM777.045 420.843L776.64 419.929L776.64 419.929L777.045 420.843ZM774.389 422.924L773.58 422.336L773.578 422.34L774.389 422.924ZM773.44 426.04L774.44 426.044L774.44 426.034L773.44 426.04ZM778.79 431.39L779.034 430.42L779.027 430.418L778.79 431.39ZM780.929 431.927L780.685 432.897L780.694 432.899L780.929 431.927ZM782.741 432.502L782.347 433.421L782.351 433.423L782.741 432.502ZM783.872 433.269L783.11 433.917L783.119 433.927L783.872 433.269ZM783.834 435.637L783.049 435.018L783.049 435.018L783.834 435.637ZM782.616 436.491L782.252 435.559L782.249 435.561L782.616 436.491ZM778.858 436.472L778.488 437.401L778.501 437.406L778.858 436.472ZM777.506 435.484L776.707 436.086L776.712 436.092L776.717 436.099L777.506 435.484ZM776.94 433.835L777.938 433.767L777.874 432.835H776.94V433.835ZM772.922 433.835V432.835H771.9L771.923 433.858L772.922 433.835ZM773.948 437.392L773.121 437.954L773.126 437.961L773.948 437.392ZM776.691 439.549L776.307 440.473L776.309 440.474L776.691 439.549ZM784.927 439.559L785.317 440.48L785.319 440.479L784.927 439.559ZM787.535 437.517L786.711 436.95L786.71 436.951L787.535 437.517ZM788.455 434.391L789.455 434.396L789.455 434.383L788.455 434.391ZM788.005 432.214L787.094 432.628L787.098 432.636L788.005 432.214ZM786.787 430.565L786.122 431.312L786.122 431.312L786.787 430.565ZM782.568 428.619L782.336 429.592L782.343 429.593L782.35 429.595L782.568 428.619ZM780.804 428.197L781.036 427.225L781.029 427.223L781.022 427.221L780.804 428.197ZM779.596 427.852L779.246 428.789L779.253 428.792L779.26 428.794L779.596 427.852ZM778.599 427.363L778.044 428.195L778.05 428.199L778.057 428.203L778.599 427.363ZM777.918 426.682L777.064 427.203L777.069 427.21L777.073 427.218L777.918 426.682ZM777.697 425.762L778.697 425.798L778.697 425.78V425.762H777.697ZM778.062 424.63L777.262 424.03L777.254 424.04L778.062 424.63ZM779.136 423.854L779.505 424.783L779.516 424.779L779.136 423.854ZM811.045 435.647L810.165 435.172L810.163 435.174L811.045 435.647ZM811.045 424.717L810.163 425.189L810.165 425.192L811.045 424.717ZM807.746 421.284L807.25 422.152L807.255 422.155L807.746 421.284ZM798.369 421.284L798.862 422.154L798.865 422.152L798.369 421.284ZM795.081 424.717L795.962 425.189L795.962 425.189L795.081 424.717ZM795.081 435.637L795.962 435.165L795.962 435.165L795.081 435.637ZM807.746 439.089L808.24 439.959L808.241 439.958L807.746 439.089ZM807.43 426.673L806.511 427.067L806.513 427.072L807.43 426.673ZM807.43 433.691L806.513 433.291L806.511 433.296L807.43 433.691ZM800.44 435.858L799.891 436.693L799.891 436.693L800.44 435.858ZM798.695 433.691L797.776 434.086L797.779 434.091L798.695 433.691ZM798.695 426.673L797.779 426.273L797.776 426.278L798.695 426.673ZM800.44 424.506L799.891 423.67L799.891 423.67L800.44 424.506ZM818.308 420.364V419.364H817.308V420.364H818.308ZM822.459 420.364H823.459V419.364H822.459V420.364ZM818.308 440H817.308V441H818.308V440ZM830.878 440V441H831.878V440H830.878ZM830.878 436.577H831.878V435.577H830.878V436.577ZM822.459 436.577H821.459V437.577H822.459V436.577ZM848.726 420.364V419.364H847.726V420.364H848.726ZM852.878 420.364H853.878V419.364H852.878V420.364ZM848.227 434.755L847.359 434.259L847.355 434.266L848.227 434.755ZM846.837 436.126L846.353 435.251L846.349 435.254L846.837 436.126ZM841.238 434.755L840.365 435.244L840.37 435.251L841.238 434.755ZM840.749 420.364H841.749V419.364H840.749V420.364ZM836.597 420.364V419.364H835.597V420.364H836.597ZM837.613 436.874L838.459 436.341L838.459 436.341L837.613 436.874ZM840.461 439.386L840.02 440.284L840.023 440.285L840.461 439.386ZM849.004 439.386L849.442 440.285L849.446 440.284L849.004 439.386ZM851.852 436.874L851.008 436.337L851.006 436.341L851.852 436.874ZM858.516 423.787H857.516V424.787H858.516V423.787ZM858.516 420.364V419.364H857.516V420.364H858.516ZM864.527 423.787H865.527V422.787H864.527V423.787ZM864.527 440H863.527V441H864.527V440ZM868.631 440V441H869.631V440H868.631ZM868.631 423.787V422.787H867.631V423.787H868.631ZM874.643 423.787V424.787H875.643V423.787H874.643ZM874.643 420.364H875.643V419.364H874.643V420.364ZM884.42 440V441H885.42V440H884.42ZM880.269 440H879.269V441H880.269V440ZM884.42 420.364H885.42V419.364H884.42V420.364ZM880.269 420.364V419.364H879.269V420.364H880.269ZM907.633 435.647L906.753 435.172L906.752 435.174L907.633 435.647ZM907.633 424.717L906.752 425.189L906.753 425.192L907.633 424.717ZM904.335 421.284L903.839 422.152L903.843 422.155L904.335 421.284ZM894.958 421.284L895.451 422.154L895.454 422.152L894.958 421.284ZM891.669 424.717L892.55 425.189L892.55 425.189L891.669 424.717ZM891.669 435.637L892.55 435.165L892.55 435.165L891.669 435.637ZM904.335 439.089L904.828 439.959L904.829 439.958L904.335 439.089ZM904.018 426.673L903.099 427.067L903.102 427.072L904.018 426.673ZM904.018 433.691L903.102 433.291L903.1 433.296L904.018 433.691ZM897.029 435.858L896.479 436.693L896.479 436.693L897.029 435.858ZM895.284 433.691L894.365 434.086L894.367 434.091L895.284 433.691ZM895.284 426.673L894.367 426.273L894.365 426.278L895.284 426.673ZM897.029 424.506L896.479 423.67L896.479 423.67L897.029 424.506ZM931.32 440V441H932.32V440H931.32ZM927.734 440L926.912 440.569L927.21 441H927.734V440ZM931.32 420.364H932.32V419.364H931.32V420.364ZM927.188 420.364V419.364H926.188V420.364H927.188ZM927.188 432.713V433.713H928.188V432.713H927.188ZM927.015 432.713L926.191 433.279L926.489 433.713H927.015V432.713ZM918.54 420.364L919.364 419.798L919.066 419.364H918.54V420.364ZM914.896 420.364V419.364H913.896V420.364H914.896ZM914.896 440H913.896V441H914.896V440ZM919.048 440V441H920.048V440H919.048ZM919.048 427.641V426.641H918.048V427.641H919.048ZM919.192 427.641L920.014 427.072L919.716 426.641H919.192V427.641ZM948.373 426.011L947.378 426.11L947.467 427.011H948.373V426.011ZM947.385 424.208L947.978 423.403L947.978 423.403L947.385 424.208ZM952.352 426.011V427.011H953.369L953.352 425.995L952.352 426.011ZM948.862 420.843L948.445 421.752L948.447 421.753L948.862 420.843ZM941.211 420.843L940.805 419.929L940.805 419.929L941.211 420.843ZM938.555 422.924L937.746 422.336L937.743 422.34L938.555 422.924ZM937.606 426.04L938.606 426.044L938.606 426.034L937.606 426.04ZM942.956 431.39L943.199 430.42L943.192 430.418L942.956 431.39ZM945.094 431.927L944.85 432.897L944.859 432.899L945.094 431.927ZM946.906 432.502L946.512 433.421L946.516 433.423L946.906 432.502ZM948.037 433.269L947.276 433.917L947.284 433.927L948.037 433.269ZM947.999 435.637L947.214 435.018L947.214 435.018L947.999 435.637ZM946.781 436.491L946.418 435.559L946.414 435.561L946.781 436.491ZM943.023 436.472L942.653 437.401L942.666 437.406L943.023 436.472ZM941.671 435.484L940.872 436.086L940.877 436.092L940.882 436.099L941.671 435.484ZM941.105 433.835L942.103 433.767L942.04 432.835H941.105V433.835ZM937.088 433.835V432.835H936.065L936.088 433.858L937.088 433.835ZM938.114 437.392L937.287 437.954L937.291 437.961L938.114 437.392ZM940.856 439.549L940.472 440.473L940.474 440.474L940.856 439.549ZM949.092 439.559L949.482 440.48L949.485 440.479L949.092 439.559ZM951.7 437.517L950.876 436.95L950.875 436.951L951.7 437.517ZM952.62 434.391L953.621 434.396L953.62 434.383L952.62 434.391ZM952.17 432.214L951.259 432.628L951.263 432.636L952.17 432.214ZM950.952 430.565L950.287 431.312L950.287 431.312L950.952 430.565ZM946.733 428.619L946.501 429.592L946.508 429.593L946.515 429.595L946.733 428.619ZM944.969 428.197L945.202 427.225L945.195 427.223L945.188 427.221L944.969 428.197ZM943.761 427.852L943.412 428.789L943.419 428.792L943.426 428.794L943.761 427.852ZM942.764 427.363L942.209 428.195L942.216 428.199L942.222 428.203L942.764 427.363ZM942.083 426.682L941.229 427.203L941.234 427.21L941.239 427.218L942.083 426.682ZM941.863 425.762L942.862 425.798L942.863 425.78V425.762H941.863ZM942.227 424.63L941.427 424.03L941.42 424.04L942.227 424.63ZM943.301 423.854L943.67 424.783L943.681 424.779L943.301 423.854ZM984 390H509V392H984V390ZM985 468V391H983V468H985ZM509 469H984V467H509V469ZM508 391V468H510V391H508ZM583 393H512V395H583V393ZM584 465V394H582V465H584ZM512 466H583V464H512V466ZM511 394V465H513V394H511ZM629.326 426.238H625.126V428.238H629.326V426.238ZM627.527 424.686C627.938 425.442 628.211 426.326 628.333 427.355L630.319 427.121C630.172 425.875 629.832 424.739 629.284 423.731L627.527 424.686ZM625.938 422.753C626.584 423.274 627.112 423.913 627.524 424.681L629.287 423.736C628.753 422.74 628.054 421.89 627.192 421.195L625.938 422.753ZM623.656 421.525C624.524 421.809 625.28 422.218 625.934 422.75L627.196 421.199C626.341 420.503 625.365 419.98 624.277 419.624L623.656 421.525ZM620.802 421.095C621.846 421.095 622.794 421.242 623.654 421.524L624.279 419.625C623.196 419.268 622.034 419.095 620.802 419.095V421.095ZM616.64 422.151C617.857 421.453 619.236 421.095 620.802 421.095V419.095C618.917 419.095 617.189 419.53 615.645 420.417L616.64 422.151ZM613.745 425.189C614.468 423.84 615.432 422.839 616.637 422.153L615.648 420.415C614.091 421.301 612.87 422.589 611.982 424.244L613.745 425.189ZM612.655 430.182C612.655 428.164 613.035 426.513 613.745 425.189L611.982 424.244C611.081 425.924 610.655 427.917 610.655 430.182H612.655ZM613.729 435.171C613.029 433.845 612.655 432.195 612.655 430.182H610.655C610.655 432.438 611.074 434.426 611.96 436.104L613.729 435.171ZM616.604 438.213C615.404 437.521 614.445 436.517 613.727 435.168L611.961 436.107C612.842 437.762 614.056 439.053 615.604 439.946L616.604 438.213ZM620.802 439.268C619.208 439.268 617.816 438.909 616.602 438.212L615.606 439.947C617.153 440.835 618.894 441.268 620.802 441.268V439.268ZM623.833 438.767C622.967 439.095 621.962 439.268 620.802 439.268V441.268C622.161 441.268 623.412 441.065 624.541 440.638L623.833 438.767ZM626.106 437.407C625.484 437.968 624.73 438.425 623.83 438.769L624.544 440.637C625.651 440.214 626.623 439.635 627.446 438.892L626.106 437.407ZM627.622 435.457C627.252 436.176 626.749 436.826 626.105 437.408L627.446 438.892C628.259 438.157 628.914 437.317 629.4 436.374L627.622 435.457ZM628.333 433.188C628.239 433.965 628.005 434.72 627.623 435.455L629.399 436.376C629.886 435.437 630.195 434.452 630.319 433.427L628.333 433.188ZM625.122 434.288L629.321 434.308L629.331 432.308L625.131 432.288L625.122 434.288ZM625.463 435.209C625.782 434.684 625.995 434.099 626.11 433.468L624.143 433.108C624.066 433.526 623.934 433.874 623.755 434.168L625.463 435.209ZM624.301 436.523C624.772 436.158 625.163 435.714 625.469 435.199L623.749 434.178C623.569 434.48 623.346 434.734 623.075 434.943L624.301 436.523ZM622.706 437.332C623.289 437.153 623.821 436.888 624.293 436.53L623.084 434.937C622.814 435.142 622.496 435.304 622.12 435.42L622.706 437.332ZM620.869 437.596C621.514 437.596 622.13 437.511 622.71 437.331L622.116 435.421C621.75 435.535 621.337 435.596 620.869 435.596V437.596ZM617.71 436.708C618.643 437.309 619.707 437.596 620.869 437.596V435.596C620.05 435.596 619.369 435.398 618.793 435.027L617.71 436.708ZM615.573 434.115C616.061 435.217 616.767 436.101 617.71 436.708L618.793 435.027C618.228 434.663 617.758 434.109 617.402 433.305L615.573 434.115ZM614.864 430.182C614.864 431.674 615.085 432.996 615.571 434.11L617.404 433.31C617.059 432.52 616.864 431.489 616.864 430.182H614.864ZM615.571 426.311C615.086 427.422 614.864 428.723 614.864 430.182H616.864C616.864 428.917 617.058 427.904 617.404 427.111L615.571 426.311ZM617.691 423.691C616.751 424.312 616.05 425.205 615.57 426.313L617.405 427.109C617.756 426.299 618.225 425.735 618.794 425.359L617.691 423.691ZM620.898 422.767C619.708 422.767 618.624 423.066 617.686 423.694L618.799 425.356C619.369 424.974 620.055 424.767 620.898 424.767V422.767ZM622.777 423.058C622.185 422.861 621.556 422.767 620.898 422.767V424.767C621.365 424.767 621.778 424.834 622.145 424.956L622.777 423.058ZM624.375 423.921C623.904 423.538 623.366 423.252 622.773 423.057L622.149 424.957C622.527 425.082 622.846 425.256 623.116 425.474L624.375 423.921ZM625.532 425.307C625.235 424.769 624.849 424.304 624.375 423.921L623.116 425.474C623.384 425.692 623.605 425.955 623.781 426.274L625.532 425.307ZM626.117 427.098C626.025 426.449 625.834 425.845 625.529 425.301L623.784 426.279C623.953 426.58 624.075 426.941 624.136 427.378L626.117 427.098ZM638.289 439H633.84V441H638.289V439ZM638.794 435.213L637.338 439.691L639.24 440.309L640.696 435.832L638.794 435.213ZM646.835 434.522H639.745V436.522H646.835V434.522ZM649.24 439.691L647.786 435.214L645.884 435.831L647.338 440.309L649.24 439.691ZM652.738 439H648.289V441H652.738V439ZM645.023 420.69L651.792 440.326L653.683 439.674L646.914 420.038L645.023 420.69ZM640.618 421.364H645.969V419.364H640.618V421.364ZM634.785 440.326L641.564 420.69L639.673 420.037L632.894 439.674L634.785 440.326ZM646.734 431.973L644.321 424.542L642.419 425.16L644.832 432.59L646.734 431.973ZM643.37 423.851H643.217V425.851H643.37V423.851ZM642.266 424.541L639.849 431.972L641.75 432.591L644.168 425.16L642.266 424.541ZM640.799 433.282H645.783V431.282H640.799V433.282ZM658.071 421.364H663.191V419.364H658.071V421.364ZM659.071 440V420.364H657.071V440H659.071ZM662.098 439H658.071V441H662.098V439ZM661.098 427.171V440H663.098V427.171H661.098ZM662.261 426.171H662.098V428.171H662.261V426.171ZM668.272 439.533L663.19 426.8L661.332 427.542L666.414 440.275L668.272 439.533ZM670.085 438.904H667.343V440.904H670.085V438.904ZM674.238 426.847L669.157 439.532L671.013 440.276L676.095 427.591L674.238 426.847ZM675.33 426.219H675.167V428.219H675.33V426.219ZM676.33 440V427.219H674.33V440H676.33ZM679.357 439H675.33V441H679.357V439ZM678.357 420.364V440H680.357V420.364H678.357ZM674.237 421.364H679.357V419.364H674.237V421.364ZM669.754 433.936L675.162 420.743L673.311 419.984L667.904 433.178L669.754 433.936ZM668.599 434.557H668.829V432.557H668.599V434.557ZM662.266 420.743L667.674 433.936L669.524 433.178L664.117 419.984L662.266 420.743ZM712.292 426.238H708.092V428.238H712.292V426.238ZM710.493 424.686C710.904 425.442 711.177 426.326 711.299 427.355L713.285 427.121C713.138 425.875 712.798 424.739 712.25 423.731L710.493 424.686ZM708.903 422.753C709.55 423.274 710.078 423.913 710.49 424.681L712.253 423.736C711.719 422.74 711.02 421.89 710.158 421.195L708.903 422.753ZM706.622 421.525C707.49 421.809 708.246 422.218 708.9 422.75L710.162 421.199C709.307 420.503 708.331 419.98 707.243 419.624L706.622 421.525ZM703.768 421.095C704.812 421.095 705.76 421.242 706.62 421.524L707.245 419.625C706.162 419.268 705 419.095 703.768 419.095V421.095ZM699.606 422.151C700.823 421.453 702.202 421.095 703.768 421.095V419.095C701.883 419.095 700.155 419.53 698.611 420.417L699.606 422.151ZM696.711 425.189C697.434 423.84 698.398 422.839 699.603 422.153L698.614 420.415C697.057 421.301 695.836 422.589 694.948 424.244L696.711 425.189ZM695.621 430.182C695.621 428.164 696.001 426.513 696.711 425.189L694.948 424.244C694.047 425.924 693.621 427.917 693.621 430.182H695.621ZM696.695 435.171C695.995 433.845 695.621 432.195 695.621 430.182H693.621C693.621 432.438 694.04 434.426 694.926 436.104L696.695 435.171ZM699.57 438.213C698.37 437.521 697.411 436.517 696.693 435.168L694.927 436.107C695.808 437.762 697.022 439.053 698.57 439.946L699.57 438.213ZM703.768 439.268C702.173 439.268 700.782 438.909 699.568 438.212L698.572 439.947C700.119 440.835 701.86 441.268 703.768 441.268V439.268ZM706.799 438.767C705.933 439.095 704.928 439.268 703.768 439.268V441.268C705.127 441.268 706.378 441.065 707.507 440.638L706.799 438.767ZM709.071 437.407C708.45 437.968 707.696 438.425 706.796 438.769L707.51 440.637C708.617 440.214 709.589 439.635 710.412 438.892L709.071 437.407ZM710.588 435.457C710.218 436.176 709.715 436.826 709.071 437.408L710.412 438.891C711.225 438.157 711.88 437.317 712.366 436.374L710.588 435.457ZM711.299 433.188C711.205 433.965 710.971 434.72 710.589 435.455L712.365 436.376C712.852 435.437 713.161 434.452 713.285 433.427L711.299 433.188ZM708.088 434.288L712.287 434.308L712.297 432.308L708.097 432.288L708.088 434.288ZM708.429 435.209C708.748 434.684 708.961 434.099 709.076 433.468L707.109 433.108C707.032 433.526 706.899 433.874 706.721 434.168L708.429 435.209ZM707.267 436.523C707.738 436.158 708.128 435.714 708.434 435.199L706.715 434.178C706.535 434.48 706.311 434.734 706.041 434.943L707.267 436.523ZM705.672 437.332C706.255 437.153 706.787 436.888 707.259 436.53L706.05 434.937C705.78 435.142 705.462 435.304 705.086 435.42L705.672 437.332ZM703.835 437.596C704.48 437.596 705.096 437.511 705.676 437.331L705.082 435.421C704.716 435.535 704.303 435.596 703.835 435.596V437.596ZM700.676 436.708C701.609 437.309 702.673 437.596 703.835 437.596V435.596C703.016 435.596 702.335 435.398 701.759 435.027L700.676 436.708ZM698.539 434.115C699.027 435.217 699.733 436.101 700.676 436.708L701.759 435.027C701.194 434.663 700.724 434.109 700.368 433.305L698.539 434.115ZM697.83 430.182C697.83 431.674 698.051 432.996 698.537 434.11L700.37 433.31C700.025 432.52 699.83 431.489 699.83 430.182H697.83ZM698.537 426.311C698.052 427.422 697.83 428.723 697.83 430.182H699.83C699.83 428.917 700.024 427.904 700.37 427.111L698.537 426.311ZM700.657 423.691C699.717 424.312 699.016 425.205 698.536 426.313L700.371 427.109C700.722 426.299 701.191 425.735 701.76 425.359L700.657 423.691ZM703.864 422.767C702.674 422.767 701.59 423.066 700.652 423.694L701.764 425.356C702.335 424.974 703.021 424.767 703.864 424.767V422.767ZM705.743 423.058C705.151 422.861 704.522 422.767 703.864 422.767V424.767C704.331 424.767 704.744 424.834 705.111 424.956L705.743 423.058ZM707.341 423.921C706.87 423.538 706.332 423.252 705.739 423.057L705.114 424.957C705.493 425.082 705.812 425.256 706.082 425.474L707.341 423.921ZM708.498 425.307C708.201 424.769 707.815 424.304 707.341 423.921L706.082 425.474C706.35 425.692 706.571 425.955 706.747 426.274L708.498 425.307ZM709.083 427.098C708.991 426.449 708.8 425.845 708.495 425.301L706.75 426.279C706.919 426.58 707.041 426.941 707.102 427.378L709.083 427.098ZM734.663 439H731.077V441H734.663V439ZM733.663 420.364V440H735.663V420.364H733.663ZM730.531 421.364H734.663V419.364H730.531V421.364ZM731.531 432.713V420.364H729.531V432.713H731.531ZM730.358 433.713H730.531V431.713H730.358V433.713ZM721.058 420.93L729.534 433.279L731.183 432.147L722.707 419.798L721.058 420.93ZM718.239 421.364H721.883V419.364H718.239V421.364ZM719.239 440V420.364H717.239V440H719.239ZM722.391 439H718.239V441H722.391V439ZM721.391 427.641V440H723.391V427.641H721.391ZM722.535 426.641H722.391V428.641H722.535V426.641ZM731.9 439.431L723.357 427.072L721.712 428.21L730.255 440.569L731.9 439.431ZM758.389 426.238H754.19V428.238H758.389V426.238ZM756.59 424.686C757.001 425.442 757.275 426.326 757.396 427.355L759.382 427.121C759.235 425.875 758.895 424.739 758.347 423.731L756.59 424.686ZM755.001 422.753C755.647 423.274 756.176 423.913 756.587 424.681L758.35 423.736C757.816 422.74 757.117 421.89 756.255 421.195L755.001 422.753ZM752.719 421.525C753.587 421.809 754.343 422.218 754.997 422.75L756.259 421.199C755.404 420.503 754.428 419.98 753.34 419.624L752.719 421.525ZM749.865 421.095C750.909 421.095 751.857 421.242 752.717 421.525L753.342 419.625C752.259 419.268 751.098 419.095 749.865 419.095V421.095ZM745.703 422.151C746.92 421.453 748.299 421.095 749.865 421.095V419.095C747.98 419.095 746.253 419.53 744.708 420.417L745.703 422.151ZM742.808 425.189C743.531 423.84 744.495 422.839 745.7 422.153L744.711 420.415C743.155 421.301 741.933 422.589 741.045 424.244L742.808 425.189ZM741.718 430.182C741.718 428.164 742.098 426.513 742.808 425.189L741.045 424.244C740.144 425.924 739.718 427.917 739.718 430.182H741.718ZM742.792 435.171C742.092 433.845 741.718 432.195 741.718 430.182H739.718C739.718 432.438 740.137 434.426 741.023 436.104L742.792 435.171ZM745.667 438.213C744.467 437.521 743.508 436.517 742.79 435.168L741.024 436.107C741.905 437.762 743.119 439.053 744.668 439.946L745.667 438.213ZM749.865 439.268C748.271 439.268 746.879 438.909 745.665 438.212L744.669 439.947C746.216 440.835 747.957 441.268 749.865 441.268V439.268ZM752.896 438.767C752.031 439.095 751.025 439.268 749.865 439.268V441.268C751.224 441.268 752.475 441.065 753.604 440.638L752.896 438.767ZM755.169 437.407C754.547 437.968 753.793 438.425 752.893 438.769L753.607 440.637C754.714 440.214 755.686 439.635 756.509 438.892L755.169 437.407ZM756.685 435.457C756.315 436.176 755.812 436.826 755.168 437.408L756.509 438.892C757.323 438.157 757.977 437.317 758.463 436.374L756.685 435.457ZM757.396 433.188C757.303 433.965 757.068 434.72 756.687 435.455L758.462 436.376C758.949 435.437 759.258 434.452 759.382 433.427L757.396 433.188ZM754.185 434.288L758.385 434.308L758.394 432.308L754.194 432.288L754.185 434.288ZM754.526 435.209C754.846 434.684 755.058 434.099 755.173 433.468L753.206 433.108C753.13 433.526 752.997 433.874 752.818 434.168L754.526 435.209ZM753.364 436.523C753.836 436.158 754.226 435.714 754.532 435.199L752.812 434.178C752.632 434.48 752.409 434.734 752.138 434.943L753.364 436.523ZM751.769 437.332C752.352 437.153 752.884 436.888 753.356 436.53L752.147 434.937C751.877 435.142 751.559 435.304 751.183 435.42L751.769 437.332ZM749.933 437.596C750.577 437.596 751.193 437.511 751.773 437.331L751.179 435.421C750.813 435.535 750.4 435.596 749.933 435.596V437.596ZM746.774 436.708C747.706 437.309 748.77 437.596 749.933 437.596V435.596C749.113 435.596 748.433 435.398 747.856 435.027L746.774 436.708ZM744.636 434.115C745.124 435.217 745.83 436.101 746.774 436.708L747.856 435.027C747.291 434.663 746.821 434.109 746.465 433.305L744.636 434.115ZM743.928 430.182C743.928 431.674 744.148 432.996 744.634 434.11L746.467 433.31C746.122 432.52 745.928 431.489 745.928 430.182H743.928ZM744.634 426.311C744.149 427.422 743.928 428.723 743.928 430.182H745.928C745.928 428.917 746.121 427.904 746.467 427.111L744.634 426.311ZM746.754 423.691C745.814 424.312 745.114 425.205 744.633 426.313L746.468 427.109C746.819 426.299 747.288 425.735 747.857 425.359L746.754 423.691ZM749.961 422.767C748.771 422.767 747.687 423.066 746.749 423.694L747.862 425.356C748.432 424.974 749.118 424.767 749.961 424.767V422.767ZM751.84 423.058C751.248 422.861 750.619 422.767 749.961 422.767V424.767C750.428 424.767 750.841 424.834 751.208 424.956L751.84 423.058ZM753.439 423.921C752.967 423.538 752.429 423.252 751.837 423.057L751.212 424.957C751.59 425.082 751.91 425.256 752.179 425.474L753.439 423.921ZM754.595 425.307C754.298 424.769 753.912 424.304 753.439 423.921L752.179 425.474C752.447 425.692 752.669 425.955 752.844 426.274L754.595 425.307ZM755.18 427.098C755.088 426.449 754.897 425.845 754.592 425.301L752.848 426.279C753.016 426.58 753.138 426.941 753.199 427.378L755.18 427.098ZM785.203 425.912C785.101 424.881 784.642 424.013 783.813 423.403L782.627 425.014C782.962 425.26 783.161 425.594 783.213 426.11L785.203 425.912ZM788.187 425.011H784.208V427.011H788.187V425.011ZM786.421 423.488C786.909 424.201 787.171 425.036 787.187 426.027L789.187 425.995C789.164 424.647 788.8 423.424 788.073 422.359L786.421 423.488ZM784.282 421.753C785.229 422.185 785.929 422.767 786.421 423.488L788.073 422.359C787.351 421.303 786.351 420.498 785.112 419.933L784.282 421.753ZM780.881 421.095C782.225 421.095 783.349 421.325 784.28 421.752L785.114 419.934C783.871 419.364 782.451 419.095 780.881 419.095V421.095ZM777.451 421.757C778.429 421.324 779.566 421.095 780.881 421.095V419.095C779.332 419.095 777.912 419.365 776.64 419.929L777.451 421.757ZM775.198 423.511C775.728 422.782 776.467 422.193 777.451 421.757L776.64 419.929C775.374 420.49 774.342 421.288 773.58 422.336L775.198 423.511ZM774.44 426.034C774.435 425.038 774.696 424.21 775.201 423.508L773.578 422.34C772.804 423.415 772.433 424.664 772.44 426.045L774.44 426.034ZM775.535 428.755C774.819 428.115 774.435 427.25 774.44 426.044L772.44 426.035C772.433 427.732 773.002 429.174 774.203 430.247L775.535 428.755ZM779.027 430.418C777.481 430.042 776.338 429.473 775.535 428.755L774.203 430.247C775.317 431.243 776.789 431.932 778.554 432.362L779.027 430.418ZM781.172 430.957L779.034 430.42L778.547 432.36L780.685 432.897L781.172 430.957ZM783.135 431.583C782.576 431.343 781.915 431.136 781.163 430.955L780.694 432.899C781.374 433.063 781.921 433.239 782.347 433.421L783.135 431.583ZM784.634 432.621C784.247 432.166 783.722 431.831 783.13 431.581L782.351 433.423C782.757 433.595 782.986 433.771 783.111 433.917L784.634 432.621ZM785.265 434.381C785.265 433.726 785.064 433.114 784.626 432.612L783.119 433.927C783.204 434.025 783.265 434.154 783.265 434.381H785.265ZM784.619 436.257C785.048 435.713 785.265 435.075 785.265 434.381H783.265C783.265 434.634 783.194 434.834 783.049 435.018L784.619 436.257ZM782.98 437.422C783.634 437.167 784.2 436.788 784.619 436.257L783.049 435.018C782.893 435.216 782.646 435.406 782.252 435.559L782.98 437.422ZM780.785 437.798C781.582 437.798 782.322 437.682 782.983 437.421L782.249 435.561C781.874 435.709 781.394 435.798 780.785 435.798V437.798ZM778.501 437.406C779.202 437.674 779.968 437.798 780.785 437.798V435.798C780.17 435.798 779.651 435.704 779.214 435.537L778.501 437.406ZM776.717 436.099C777.175 436.687 777.777 437.118 778.488 437.401L779.227 435.542C778.813 435.378 778.513 435.15 778.294 434.869L776.717 436.099ZM775.942 433.903C775.998 434.716 776.237 435.462 776.707 436.086L778.304 434.882C778.11 434.624 777.972 434.27 777.938 433.767L775.942 433.903ZM772.922 434.835H776.94V432.835H772.922V434.835ZM774.775 436.83C774.253 436.062 773.951 435.075 773.922 433.812L771.923 433.858C771.958 435.42 772.339 436.804 773.122 437.954L774.775 436.83ZM777.074 438.626C776.064 438.207 775.31 437.603 774.771 436.823L773.126 437.961C773.904 439.086 774.977 439.921 776.307 440.473L777.074 438.626ZM780.833 439.278C779.347 439.278 778.102 439.05 777.072 438.625L776.309 440.474C777.632 441.02 779.148 441.278 780.833 441.278V439.278ZM784.537 438.638C783.56 439.052 782.335 439.278 780.833 439.278V441.278C782.526 441.278 784.031 441.025 785.317 440.48L784.537 438.638ZM786.71 436.951C786.233 437.646 785.527 438.216 784.534 438.639L785.319 440.479C786.603 439.931 787.634 439.139 788.359 438.082L786.71 436.951ZM787.455 434.386C787.45 435.412 787.191 436.253 786.711 436.95L788.358 438.084C789.093 437.017 789.448 435.773 789.455 434.396L787.455 434.386ZM787.098 432.636C787.322 433.119 787.45 433.699 787.455 434.399L789.455 434.383C789.448 433.446 789.275 432.576 788.911 431.793L787.098 432.636ZM786.122 431.312C786.543 431.687 786.865 432.124 787.094 432.628L788.915 431.801C788.569 431.04 788.079 430.377 787.452 429.818L786.122 431.312ZM784.519 430.299C785.152 430.582 785.683 430.921 786.122 431.312L787.452 429.818C786.843 429.276 786.133 428.829 785.334 428.473L784.519 430.299ZM782.35 429.595C783.149 429.774 783.871 430.01 784.519 430.299L785.334 428.473C784.551 428.123 783.7 427.848 782.787 427.643L782.35 429.595ZM780.571 429.17L782.336 429.592L782.801 427.646L781.036 427.225L780.571 429.17ZM779.26 428.794C779.679 428.943 780.121 429.069 780.585 429.173L781.022 427.221C780.63 427.133 780.267 427.029 779.931 426.91L779.26 428.794ZM778.057 428.203C778.414 428.434 778.813 428.627 779.246 428.789L779.945 426.915C779.624 426.795 779.358 426.663 779.14 426.522L778.057 428.203ZM777.073 427.218C777.323 427.611 777.653 427.935 778.044 428.195L779.153 426.531C778.969 426.408 778.846 426.278 778.762 426.147L777.073 427.218ZM776.698 425.725C776.679 426.243 776.788 426.75 777.064 427.203L778.772 426.162C778.728 426.09 778.69 425.983 778.697 425.798L776.698 425.725ZM777.254 424.04C776.883 424.548 776.697 425.133 776.697 425.762H778.697C778.697 425.546 778.755 425.377 778.869 425.22L777.254 424.04ZM778.766 422.924C778.164 423.163 777.643 423.523 777.262 424.03L778.862 425.23C778.979 425.073 779.174 424.915 779.505 424.783L778.766 422.924ZM780.852 422.566C780.086 422.566 779.376 422.674 778.755 422.929L779.516 424.779C779.828 424.65 780.263 424.566 780.852 424.566V422.566ZM783.813 423.403C783.005 422.808 781.983 422.566 780.852 422.566V424.566C781.715 424.566 782.272 424.752 782.627 425.014L783.813 423.403ZM811.262 430.182C811.262 432.199 810.88 433.848 810.165 435.172L811.924 436.122C812.833 434.442 813.262 432.448 813.262 430.182H811.262ZM810.165 425.192C810.88 426.516 811.262 428.165 811.262 430.182H813.262C813.262 427.916 812.833 425.922 811.924 424.241L810.165 425.192ZM807.255 422.155C808.472 422.842 809.442 423.843 810.163 425.189L811.926 424.244C811.037 422.586 809.807 421.299 808.238 420.413L807.255 422.155ZM803.067 421.095C804.641 421.095 806.027 421.453 807.25 422.152L808.243 420.416C806.692 419.53 804.959 419.095 803.067 419.095V421.095ZM798.865 422.152C800.088 421.454 801.48 421.095 803.067 421.095V419.095C801.165 419.095 799.425 419.529 797.873 420.416L798.865 422.152ZM795.962 425.189C796.684 423.842 797.651 422.841 798.862 422.154L797.876 420.414C796.313 421.3 795.088 422.587 794.199 424.244L795.962 425.189ZM794.873 430.182C794.873 428.164 795.252 426.513 795.962 425.189L794.199 424.244C793.298 425.924 792.873 427.917 792.873 430.182H794.873ZM795.962 435.165C795.252 433.84 794.873 432.193 794.873 430.182H792.873C792.873 432.441 793.299 434.43 794.199 436.11L795.962 435.165ZM798.865 438.211C797.652 437.518 796.685 436.513 795.962 435.165L794.199 436.11C795.087 437.766 796.312 439.056 797.873 439.948L798.865 438.211ZM803.067 439.268C801.48 439.268 800.088 438.91 798.865 438.211L797.873 439.948C799.425 440.835 801.165 441.268 803.067 441.268V439.268ZM807.253 438.219C806.029 438.913 804.642 439.268 803.067 439.268V441.268C804.957 441.268 806.689 440.838 808.24 439.959L807.253 438.219ZM810.163 435.174C809.441 436.522 808.471 437.526 807.252 438.22L808.241 439.958C809.809 439.067 811.038 437.777 811.926 436.12L810.163 435.174ZM809.053 430.182C809.053 428.701 808.832 427.386 808.347 426.273L806.513 427.072C806.859 427.864 807.053 428.889 807.053 430.182H809.053ZM808.347 434.091C808.832 432.978 809.053 431.663 809.053 430.182H807.053C807.053 431.475 806.859 432.5 806.513 433.291L808.347 434.091ZM806.244 436.693C807.18 436.077 807.875 435.189 808.349 434.086L806.511 433.296C806.167 434.098 805.705 434.654 805.145 435.023L806.244 436.693ZM803.067 437.596C804.242 437.596 805.314 437.306 806.244 436.693L805.145 435.023C804.58 435.395 803.9 435.596 803.067 435.596V437.596ZM799.891 436.693C800.821 437.306 801.893 437.596 803.067 437.596V435.596C802.235 435.596 801.555 435.395 800.99 435.023L799.891 436.693ZM797.779 434.091C798.259 435.192 798.956 436.078 799.891 436.693L800.99 435.023C800.429 434.653 799.963 434.095 799.612 433.291L797.779 434.091ZM797.082 430.182C797.082 431.661 797.299 432.974 797.776 434.086L799.614 433.296C799.273 432.503 799.082 431.477 799.082 430.182H797.082ZM797.776 426.278C797.299 427.39 797.082 428.702 797.082 430.182H799.082C799.082 428.887 799.273 427.86 799.614 427.067L797.776 426.278ZM799.891 423.67C798.956 424.285 798.259 425.172 797.779 426.273L799.612 427.072C799.963 426.268 800.429 425.71 800.99 425.341L799.891 423.67ZM803.067 422.767C801.893 422.767 800.821 423.058 799.891 423.67L800.99 425.341C801.555 424.969 802.235 424.767 803.067 424.767V422.767ZM806.244 423.67C805.314 423.058 804.242 422.767 803.067 422.767V424.767C803.9 424.767 804.58 424.969 805.145 425.341L806.244 423.67ZM808.349 426.278C807.875 425.175 807.18 424.286 806.244 423.67L805.145 425.341C805.705 425.709 806.167 426.266 806.511 427.067L808.349 426.278ZM818.308 421.364H822.459V419.364H818.308V421.364ZM819.308 440V420.364H817.308V440H819.308ZM830.878 439H818.308V441H830.878V439ZM829.878 436.577V440H831.878V436.577H829.878ZM822.459 437.577H830.878V435.577H822.459V437.577ZM821.459 420.364V436.577H823.459V420.364H821.459ZM848.726 421.364H852.878V419.364H848.726V421.364ZM849.726 432.761V420.364H847.726V432.761H849.726ZM849.096 435.251C849.524 434.502 849.726 433.662 849.726 432.761H847.726C847.726 433.356 847.596 433.846 847.359 434.259L849.096 435.251ZM847.321 437.001C848.08 436.582 848.68 435.993 849.1 435.244L847.355 434.266C847.123 434.681 846.796 435.006 846.353 435.251L847.321 437.001ZM844.737 437.625C845.682 437.625 846.557 437.429 847.325 436.999L846.349 435.254C845.929 435.489 845.403 435.625 844.737 435.625V437.625ZM842.154 437.001C842.925 437.428 843.797 437.625 844.737 437.625V435.625C844.08 435.625 843.552 435.489 843.122 435.251L842.154 437.001ZM840.37 435.251C840.795 435.996 841.397 436.583 842.154 437.001L843.122 435.251C842.677 435.005 842.345 434.678 842.106 434.259L840.37 435.251ZM839.749 432.761C839.749 433.659 839.946 434.496 840.365 435.244L842.11 434.266C841.878 433.852 841.749 433.359 841.749 432.761H839.749ZM839.749 420.364V432.761H841.749V420.364H839.749ZM836.597 421.364H840.749V419.364H836.597V421.364ZM837.597 433.116V420.364H835.597V433.116H837.597ZM838.459 436.341C837.895 435.446 837.597 434.384 837.597 433.116H835.597C835.597 434.712 835.977 436.155 836.768 437.408L838.459 436.341ZM840.903 438.489C839.835 437.964 839.031 437.247 838.459 436.341L836.768 437.408C837.551 438.649 838.645 439.607 840.02 440.284L840.903 438.489ZM844.737 439.278C843.229 439.278 841.959 439.003 840.899 438.487L840.023 440.285C841.405 440.958 842.986 441.278 844.737 441.278V439.278ZM848.566 438.487C847.506 439.004 846.239 439.278 844.737 439.278V441.278C846.483 441.278 848.06 440.958 849.442 440.285L848.566 438.487ZM851.006 436.341C850.434 437.247 849.63 437.964 848.563 438.489L849.446 440.284C850.82 439.607 851.914 438.649 852.697 437.408L851.006 436.341ZM851.878 433.116C851.878 434.382 851.578 435.443 851.008 436.337L852.695 437.411C853.494 436.158 853.878 434.713 853.878 433.116H851.878ZM851.878 420.364V433.116H853.878V420.364H851.878ZM859.516 423.787V420.364H857.516V423.787H859.516ZM864.527 422.787H858.516V424.787H864.527V422.787ZM865.527 440V423.787H863.527V440H865.527ZM868.631 439H864.527V441H868.631V439ZM867.631 423.787V440H869.631V423.787H867.631ZM874.643 422.787H868.631V424.787H874.643V422.787ZM873.643 420.364V423.787H875.643V420.364H873.643ZM858.516 421.364H874.643V419.364H858.516V421.364ZM884.42 439H880.269V441H884.42V439ZM883.42 420.364V440H885.42V420.364H883.42ZM880.269 421.364H884.42V419.364H880.269V421.364ZM881.269 440V420.364H879.269V440H881.269ZM907.851 430.182C907.851 432.199 907.469 433.848 906.753 435.172L908.513 436.122C909.421 434.442 909.851 432.448 909.851 430.182H907.851ZM906.753 425.192C907.469 426.516 907.851 428.165 907.851 430.182H909.851C909.851 427.916 909.421 425.922 908.513 424.241L906.753 425.192ZM903.843 422.155C905.061 422.842 906.03 423.843 906.752 425.189L908.514 424.244C907.625 422.586 906.396 421.299 904.826 420.413L903.843 422.155ZM899.656 421.095C901.229 421.095 902.615 421.453 903.839 422.152L904.831 420.416C903.28 419.53 901.547 419.095 899.656 419.095V421.095ZM895.454 422.152C896.676 421.454 898.068 421.095 899.656 421.095V419.095C897.753 419.095 896.013 419.529 894.461 420.416L895.454 422.152ZM892.55 425.189C893.273 423.842 894.239 422.841 895.451 422.154L894.465 420.414C892.902 421.3 891.676 422.587 890.788 424.244L892.55 425.189ZM891.461 430.182C891.461 428.164 891.84 426.513 892.55 425.189L890.788 424.244C889.887 425.924 889.461 427.917 889.461 430.182H891.461ZM892.55 435.165C891.84 433.84 891.461 432.193 891.461 430.182H889.461C889.461 432.441 889.887 434.43 890.788 436.11L892.55 435.165ZM895.454 438.211C894.241 437.518 893.273 436.513 892.55 435.165L890.788 436.11C891.676 437.766 892.9 439.056 894.461 439.948L895.454 438.211ZM899.656 439.268C898.068 439.268 896.676 438.91 895.454 438.211L894.461 439.948C896.013 440.835 897.753 441.268 899.656 441.268V439.268ZM903.842 438.219C902.618 438.913 901.231 439.268 899.656 439.268V441.268C901.545 441.268 903.278 440.838 904.828 439.959L903.842 438.219ZM906.752 435.174C906.029 436.522 905.06 437.526 903.84 438.22L904.829 439.958C906.397 439.067 907.626 437.777 908.514 436.12L906.752 435.174ZM905.642 430.182C905.642 428.701 905.421 427.386 904.935 426.273L903.102 427.072C903.447 427.864 903.642 428.889 903.642 430.182H905.642ZM904.935 434.091C905.421 432.978 905.642 431.663 905.642 430.182H903.642C903.642 431.475 903.447 432.5 903.102 433.291L904.935 434.091ZM902.833 436.693C903.769 436.077 904.463 435.189 904.937 434.086L903.1 433.296C902.755 434.098 902.293 434.654 901.733 435.023L902.833 436.693ZM899.656 437.596C900.83 437.596 901.902 437.306 902.833 436.693L901.733 435.023C901.168 435.395 900.488 435.596 899.656 435.596V437.596ZM896.479 436.693C897.409 437.306 898.481 437.596 899.656 437.596V435.596C898.823 435.596 898.144 435.395 897.578 435.023L896.479 436.693ZM894.367 434.091C894.847 435.192 895.544 436.078 896.479 436.693L897.578 435.023C897.017 434.653 896.551 434.095 896.2 433.291L894.367 434.091ZM893.67 430.182C893.67 431.661 893.887 432.974 894.365 434.086L896.202 433.296C895.862 432.503 895.67 431.477 895.67 430.182H893.67ZM894.365 426.278C893.887 427.39 893.67 428.702 893.67 430.182H895.67C895.67 428.887 895.862 427.86 896.202 427.067L894.365 426.278ZM896.479 423.67C895.544 424.285 894.847 425.172 894.367 426.273L896.2 427.072C896.551 426.268 897.017 425.71 897.578 425.341L896.479 423.67ZM899.656 422.767C898.481 422.767 897.409 423.058 896.479 423.67L897.578 425.341C898.144 424.969 898.823 424.767 899.656 424.767V422.767ZM902.833 423.67C901.902 423.058 900.83 422.767 899.656 422.767V424.767C900.488 424.767 901.168 424.969 901.733 425.341L902.833 423.67ZM904.937 426.278C904.463 425.175 903.769 424.286 902.833 423.67L901.733 425.341C902.293 425.709 902.755 426.266 903.1 427.067L904.937 426.278ZM931.32 439H927.734V441H931.32V439ZM930.32 420.364V440H932.32V420.364H930.32ZM927.188 421.364H931.32V419.364H927.188V421.364ZM928.188 432.713V420.364H926.188V432.713H928.188ZM927.015 433.713H927.188V431.713H927.015V433.713ZM917.715 420.93L926.191 433.279L927.84 432.147L919.364 419.798L917.715 420.93ZM914.896 421.364H918.54V419.364H914.896V421.364ZM915.896 440V420.364H913.896V440H915.896ZM919.048 439H914.896V441H919.048V439ZM918.048 427.641V440H920.048V427.641H918.048ZM919.192 426.641H919.048V428.641H919.192V426.641ZM928.557 439.431L920.014 427.072L918.369 428.21L926.912 440.569L928.557 439.431ZM949.368 425.912C949.266 424.881 948.807 424.013 947.978 423.403L946.792 425.014C947.127 425.26 947.327 425.594 947.378 426.11L949.368 425.912ZM952.352 425.011H948.373V427.011H952.352V425.011ZM950.587 423.488C951.074 424.201 951.336 425.036 951.352 426.027L953.352 425.995C953.33 424.647 952.965 423.424 952.238 422.359L950.587 423.488ZM948.447 421.753C949.394 422.185 950.094 422.767 950.587 423.488L952.238 422.359C951.516 421.303 950.516 420.498 949.277 419.933L948.447 421.753ZM945.046 421.095C946.39 421.095 947.514 421.325 948.445 421.752L949.279 419.934C948.036 419.364 946.616 419.095 945.046 419.095V421.095ZM941.616 421.757C942.594 421.324 943.731 421.095 945.046 421.095V419.095C943.497 419.095 942.077 419.365 940.805 419.929L941.616 421.757ZM939.364 423.511C939.894 422.782 940.632 422.193 941.616 421.757L940.805 419.929C939.539 420.49 938.507 421.288 937.746 422.336L939.364 423.511ZM938.606 426.034C938.6 425.038 938.862 424.21 939.367 423.508L937.743 422.34C936.97 423.415 936.598 424.664 936.606 426.045L938.606 426.034ZM939.7 428.755C938.984 428.115 938.6 427.25 938.606 426.044L936.606 426.035C936.598 427.732 937.167 429.174 938.368 430.247L939.7 428.755ZM943.192 430.418C941.646 430.042 940.503 429.473 939.7 428.755L938.368 430.247C939.483 431.243 940.954 431.932 942.719 432.362L943.192 430.418ZM945.337 430.957L943.199 430.42L942.712 432.36L944.85 432.897L945.337 430.957ZM947.3 431.583C946.741 431.343 946.08 431.136 945.328 430.955L944.859 432.899C945.539 433.063 946.087 433.239 946.512 433.421L947.3 431.583ZM948.799 432.621C948.412 432.166 947.887 431.831 947.296 431.581L946.516 433.423C946.922 433.595 947.152 433.771 947.276 433.917L948.799 432.621ZM949.43 434.381C949.43 433.726 949.229 433.114 948.791 432.612L947.284 433.927C947.37 434.025 947.43 434.154 947.43 434.381H949.43ZM948.784 436.257C949.214 435.713 949.43 435.075 949.43 434.381H947.43C947.43 434.634 947.36 434.834 947.214 435.018L948.784 436.257ZM947.145 437.422C947.8 437.167 948.365 436.788 948.784 436.257L947.214 435.018C947.058 435.216 946.811 435.406 946.418 435.559L947.145 437.422ZM944.95 437.798C945.747 437.798 946.488 437.682 947.149 437.421L946.414 435.561C946.039 435.709 945.559 435.798 944.95 435.798V437.798ZM942.666 437.406C943.367 437.674 944.133 437.798 944.95 437.798V435.798C944.335 435.798 943.817 435.704 943.38 435.537L942.666 437.406ZM940.882 436.099C941.341 436.687 941.942 437.118 942.653 437.401L943.392 435.542C942.978 435.378 942.679 435.15 942.46 434.869L940.882 436.099ZM940.107 433.903C940.163 434.716 940.402 435.462 940.872 436.086L942.469 434.882C942.275 434.624 942.137 434.27 942.103 433.767L940.107 433.903ZM937.088 434.835H941.105V432.835H937.088V434.835ZM938.941 436.83C938.419 436.062 938.116 435.075 938.088 433.812L936.088 433.858C936.123 435.42 936.505 436.804 937.287 437.954L938.941 436.83ZM941.239 438.626C940.23 438.207 939.475 437.603 938.936 436.823L937.291 437.961C938.069 439.086 939.143 439.921 940.472 440.473L941.239 438.626ZM944.998 439.278C943.513 439.278 942.267 439.05 941.238 438.625L940.474 440.474C941.797 441.02 943.313 441.278 944.998 441.278V439.278ZM948.702 438.638C947.725 439.052 946.5 439.278 944.998 439.278V441.278C946.692 441.278 948.196 441.025 949.482 440.48L948.702 438.638ZM950.875 436.951C950.399 437.646 949.692 438.216 948.699 438.639L949.485 440.479C950.768 439.931 951.8 439.139 952.525 438.082L950.875 436.951ZM951.62 434.386C951.615 435.412 951.356 436.253 950.876 436.95L952.524 438.084C953.258 437.017 953.613 435.773 953.62 434.396L951.62 434.386ZM951.263 432.636C951.487 433.119 951.615 433.699 951.62 434.399L953.62 434.383C953.613 433.446 953.44 432.576 953.077 431.793L951.263 432.636ZM950.287 431.312C950.708 431.687 951.03 432.124 951.259 432.628L953.08 431.801C952.734 431.04 952.244 430.377 951.617 429.818L950.287 431.312ZM948.684 430.299C949.317 430.582 949.848 430.921 950.287 431.312L951.617 429.818C951.008 429.276 950.299 428.829 949.5 428.473L948.684 430.299ZM946.515 429.595C947.314 429.774 948.036 430.01 948.684 430.299L949.5 428.473C948.716 428.123 947.866 427.848 946.952 427.643L946.515 429.595ZM944.737 429.17L946.501 429.592L946.966 427.646L945.202 427.225L944.737 429.17ZM943.426 428.794C943.845 428.943 944.287 429.069 944.751 429.173L945.188 427.221C944.795 427.133 944.432 427.029 944.096 426.91L943.426 428.794ZM942.222 428.203C942.58 428.434 942.979 428.627 943.412 428.789L944.11 426.915C943.789 426.795 943.523 426.663 943.306 426.522L942.222 428.203ZM941.239 427.218C941.488 427.611 941.819 427.935 942.209 428.195L943.319 426.531C943.134 426.408 943.011 426.278 942.928 426.147L941.239 427.218ZM940.863 425.725C940.844 426.243 940.953 426.75 941.229 427.203L942.937 426.162C942.894 426.09 942.855 425.983 942.862 425.798L940.863 425.725ZM941.42 424.04C941.048 424.548 940.863 425.133 940.863 425.762H942.863C942.863 425.546 942.92 425.377 943.034 425.22L941.42 424.04ZM942.932 422.924C942.33 423.163 941.808 423.523 941.427 424.03L943.027 425.23C943.145 425.073 943.339 424.915 943.67 424.783L942.932 422.924ZM945.017 422.566C944.251 422.566 943.542 422.674 942.921 422.929L943.681 424.779C943.993 424.65 944.428 424.566 945.017 424.566V422.566ZM947.978 423.403C947.17 422.808 946.148 422.566 945.017 422.566V424.566C945.88 424.566 946.437 424.752 946.792 425.014L947.978 423.403Z" fill="#4951F2" mask="url(#path-6-inside-1_118_3)"/>
<mask id="path-8-inside-2_118_3" fill="white">
<rect x="523" y="415" width="50" height="40" rx="1"/>
</mask>
<rect x="523" y="415" width="50" height="40" rx="1" stroke="#4951F2" stroke-width="4" mask="url(#path-8-inside-2_118_3)"/>
<mask id="path-9-inside-3_118_3" fill="white">
<rect x="527" y="419" width="8" height="25" rx="1"/>
</mask>
<rect x="527" y="419" width="8" height="25" rx="1" stroke="#4951F2" stroke-width="4" mask="url(#path-9-inside-3_118_3)"/>
<rect x="538" y="426" width="4" height="11" stroke="#4951F2" stroke-width="2"/>
<mask id="path-11-inside-4_118_3" fill="white">
<rect x="559" y="418" width="10" height="9" rx="1"/>
</mask>
<rect x="559" y="418" width="10" height="9" rx="1" stroke="#4951F2" stroke-width="4" mask="url(#path-11-inside-4_118_3)"/>
<line x1="538" y1="416" x2="538" y2="425" stroke="#4951F2" stroke-width="2"/>
<line x1="538" y1="438" x2="538" y2="446" stroke="#4951F2" stroke-width="2"/>
<line x1="524" y1="446.5" x2="571" y2="446.5" stroke="#4951F2"/>
<line x1="557" y1="416" x2="557" y2="446" stroke="#4951F2" stroke-width="2"/>
<line x1="560" y1="430" x2="564" y2="430" stroke="#4951F2" stroke-width="2"/>
<line x1="565" y1="430" x2="569" y2="430" stroke="#4951F2" stroke-width="2"/>
<line x1="560" y1="433" x2="564" y2="433" stroke="#4951F2" stroke-width="2"/>
<line x1="565" y1="433" x2="569" y2="433" stroke="#4951F2" stroke-width="2"/>
<line x1="560" y1="436" x2="564" y2="436" stroke="#4951F2" stroke-width="2"/>
<line x1="565" y1="436" x2="569" y2="436" stroke="#4951F2" stroke-width="2"/>
<path d="M563 411L562 410V406L563 405H566L567 406V410L566 411M563 411V415H566V411M563 411H566" stroke="#4951F2" stroke-width="2"/>
<path d="M563.907 496.098V497.27H559.411V496.098H563.907ZM556.812 498.591H558.176C558.293 499.358 558.552 499.947 558.953 500.359C559.354 500.771 559.997 500.977 560.881 500.977C561.506 500.977 562.028 500.801 562.448 500.45C562.87 500.098 563.186 499.633 563.396 499.054C563.609 498.475 563.715 497.845 563.715 497.163V495.949C563.715 495.196 563.596 494.534 563.358 493.962C563.124 493.387 562.785 492.939 562.341 492.62C561.901 492.297 561.372 492.135 560.754 492.135C560.214 492.135 559.766 492.231 559.411 492.423C559.056 492.614 558.779 492.89 558.58 493.248C558.381 493.607 558.247 494.038 558.176 494.543H556.812C556.883 493.847 557.073 493.229 557.382 492.689C557.694 492.146 558.129 491.719 558.687 491.411C559.248 491.098 559.937 490.942 560.754 490.942C561.641 490.942 562.408 491.15 563.055 491.565C563.701 491.977 564.2 492.558 564.552 493.307C564.903 494.053 565.079 494.926 565.079 495.928V497.185C565.079 498.186 564.905 499.06 564.557 499.805C564.209 500.548 563.721 501.125 563.092 501.537C562.464 501.945 561.727 502.149 560.881 502.149C560.015 502.149 559.294 501.993 558.719 501.68C558.147 501.364 557.705 500.938 557.392 500.402C557.084 499.862 556.89 499.259 556.812 498.591ZM569.681 502V493.818H570.938V497.376H571.769L574.709 493.818H576.329L573.026 497.76L576.371 502H574.752L572.067 498.548H570.938V502H569.681ZM583.275 502.17C582.508 502.17 581.847 501.989 581.293 501.627C580.739 501.265 580.313 500.766 580.015 500.13C579.716 499.495 579.567 498.768 579.567 497.952C579.567 497.121 579.72 496.387 580.025 495.752C580.334 495.113 580.764 494.614 581.314 494.255C581.868 493.893 582.515 493.712 583.253 493.712C583.829 493.712 584.347 493.818 584.809 494.031C585.27 494.244 585.649 494.543 585.943 494.926C586.238 495.31 586.421 495.757 586.492 496.268H585.235C585.139 495.896 584.926 495.565 584.596 495.278C584.269 494.987 583.829 494.841 583.275 494.841C582.785 494.841 582.355 494.969 581.986 495.224C581.62 495.477 581.334 495.833 581.128 496.295C580.926 496.753 580.824 497.291 580.824 497.909C580.824 498.541 580.924 499.092 581.123 499.56C581.325 500.029 581.609 500.393 581.975 500.652C582.344 500.912 582.777 501.041 583.275 501.041C583.601 501.041 583.898 500.984 584.164 500.871C584.431 500.757 584.656 500.594 584.841 500.381C585.025 500.168 585.157 499.912 585.235 499.614H586.492C586.421 500.097 586.245 500.532 585.965 500.919C585.688 501.302 585.32 501.608 584.862 501.835C584.407 502.059 583.878 502.17 583.275 502.17ZM590.88 502V493.818H597.314V502H596.057V494.99H592.137V502H590.88ZM605.591 502.17C604.802 502.17 604.122 501.996 603.55 501.648C602.982 501.297 602.544 500.807 602.235 500.178C601.929 499.546 601.777 498.811 601.777 497.973C601.777 497.135 601.929 496.396 602.235 495.757C602.544 495.114 602.973 494.614 603.524 494.255C604.078 493.893 604.724 493.712 605.463 493.712C605.889 493.712 606.31 493.783 606.725 493.925C607.141 494.067 607.519 494.298 607.86 494.617C608.201 494.933 608.472 495.352 608.675 495.874C608.877 496.396 608.978 497.039 608.978 497.803V498.335H602.672V497.249H607.7C607.7 496.787 607.608 496.375 607.423 496.013C607.242 495.651 606.983 495.365 606.645 495.155C606.311 494.946 605.917 494.841 605.463 494.841C604.962 494.841 604.529 494.965 604.163 495.214C603.801 495.459 603.522 495.778 603.327 496.173C603.131 496.567 603.034 496.989 603.034 497.44V498.165C603.034 498.783 603.14 499.306 603.353 499.736C603.57 500.162 603.87 500.487 604.254 500.711C604.637 500.931 605.083 501.041 605.591 501.041C605.921 501.041 606.219 500.995 606.485 500.903C606.755 500.807 606.988 500.665 607.183 500.477C607.379 500.285 607.529 500.047 607.636 499.763L608.85 500.104C608.723 500.516 608.508 500.878 608.206 501.19C607.904 501.499 607.531 501.741 607.087 501.915C606.643 502.085 606.145 502.17 605.591 502.17ZM613.441 505.068V493.818H614.655V495.118H614.804C614.897 494.976 615.024 494.795 615.188 494.575C615.355 494.351 615.593 494.152 615.902 493.978C616.214 493.8 616.637 493.712 617.169 493.712C617.858 493.712 618.465 493.884 618.991 494.228C619.517 494.573 619.927 495.061 620.222 495.693C620.516 496.325 620.664 497.071 620.664 497.93C620.664 498.797 620.516 499.548 620.222 500.184C619.927 500.816 619.518 501.306 618.996 501.654C618.474 501.998 617.872 502.17 617.191 502.17C616.665 502.17 616.244 502.083 615.928 501.909C615.612 501.732 615.369 501.531 615.198 501.308C615.028 501.08 614.897 500.892 614.804 500.743H614.698V505.068H613.441ZM614.676 497.909C614.676 498.527 614.767 499.072 614.948 499.544C615.129 500.013 615.394 500.381 615.742 500.647C616.09 500.91 616.516 501.041 617.02 501.041C617.546 501.041 617.984 500.903 618.336 500.626C618.691 500.345 618.957 499.969 619.135 499.496C619.316 499.021 619.407 498.491 619.407 497.909C619.407 497.334 619.318 496.815 619.14 496.354C618.966 495.888 618.702 495.521 618.347 495.251C617.995 494.978 617.553 494.841 617.02 494.841C616.509 494.841 616.079 494.971 615.731 495.23C615.383 495.485 615.12 495.844 614.943 496.306C614.765 496.764 614.676 497.298 614.676 497.909ZM624.062 494.99V493.818H630.71V494.99H628.025V502H626.768V494.99H624.062ZM640.569 497.334V498.506H636.052V497.334H640.569ZM636.35 493.818V502H635.093V493.818H636.35ZM641.528 493.818V502H640.271V493.818H641.528ZM647.46 496.78H649.804C650.763 496.78 651.496 497.023 652.004 497.51C652.512 497.996 652.766 498.612 652.766 499.358C652.766 499.848 652.652 500.294 652.425 500.695C652.198 501.093 651.864 501.411 651.424 501.648C650.983 501.883 650.443 502 649.804 502H646.374V493.818H647.631V500.828H649.804C650.301 500.828 650.71 500.697 651.029 500.434C651.349 500.171 651.509 499.834 651.509 499.422C651.509 498.989 651.349 498.635 651.029 498.362C650.71 498.088 650.301 497.952 649.804 497.952H647.46V496.78ZM654.066 502V493.818H655.323V502H654.066ZM663.604 502.17C662.816 502.17 662.136 501.996 661.564 501.648C660.996 501.297 660.557 500.807 660.248 500.178C659.943 499.546 659.79 498.811 659.79 497.973C659.79 497.135 659.943 496.396 660.248 495.757C660.557 495.114 660.987 494.614 661.537 494.255C662.091 493.893 662.738 493.712 663.476 493.712C663.903 493.712 664.323 493.783 664.739 493.925C665.154 494.067 665.532 494.298 665.873 494.617C666.214 494.933 666.486 495.352 666.688 495.874C666.891 496.396 666.992 497.039 666.992 497.803V498.335H660.685V497.249H665.714C665.714 496.787 665.621 496.375 665.437 496.013C665.255 495.651 664.996 495.365 664.659 495.155C664.325 494.946 663.931 494.841 663.476 494.841C662.976 494.841 662.542 494.965 662.177 495.214C661.814 495.459 661.536 495.778 661.34 496.173C661.145 496.567 661.047 496.989 661.047 497.44V498.165C661.047 498.783 661.154 499.306 661.367 499.736C661.584 500.162 661.884 500.487 662.267 500.711C662.651 500.931 663.096 501.041 663.604 501.041C663.934 501.041 664.233 500.995 664.499 500.903C664.769 500.807 665.002 500.665 665.197 500.477C665.392 500.285 665.543 500.047 665.65 499.763L666.864 500.104C666.736 500.516 666.521 500.878 666.22 501.19C665.918 501.499 665.545 501.741 665.101 501.915C664.657 502.085 664.158 502.17 663.604 502.17ZM678.223 505.068V493.818H679.438V495.118H679.587C679.679 494.976 679.807 494.795 679.97 494.575C680.137 494.351 680.375 494.152 680.684 493.978C680.996 493.8 681.419 493.712 681.952 493.712C682.641 493.712 683.248 493.884 683.773 494.228C684.299 494.573 684.709 495.061 685.004 495.693C685.299 496.325 685.446 497.071 685.446 497.93C685.446 498.797 685.299 499.548 685.004 500.184C684.709 500.816 684.301 501.306 683.779 501.654C683.257 501.998 682.655 502.17 681.973 502.17C681.447 502.17 681.027 502.083 680.711 501.909C680.395 501.732 680.151 501.531 679.981 501.308C679.81 501.08 679.679 500.892 679.587 500.743H679.48V505.068H678.223ZM679.459 497.909C679.459 498.527 679.549 499.072 679.73 499.544C679.912 500.013 680.176 500.381 680.524 500.647C680.872 500.91 681.298 501.041 681.803 501.041C682.328 501.041 682.767 500.903 683.118 500.626C683.473 500.345 683.74 499.969 683.917 499.496C684.098 499.021 684.189 498.491 684.189 497.909C684.189 497.334 684.1 496.815 683.923 496.354C683.749 495.888 683.484 495.521 683.129 495.251C682.777 494.978 682.335 494.841 681.803 494.841C681.291 494.841 680.862 494.971 680.514 495.23C680.166 495.485 679.903 495.844 679.725 496.306C679.548 496.764 679.459 497.298 679.459 497.909ZM693.344 502.17C692.556 502.17 691.876 501.996 691.304 501.648C690.736 501.297 690.297 500.807 689.988 500.178C689.683 499.546 689.53 498.811 689.53 497.973C689.53 497.135 689.683 496.396 689.988 495.757C690.297 495.114 690.727 494.614 691.277 494.255C691.831 493.893 692.478 493.712 693.216 493.712C693.642 493.712 694.063 493.783 694.479 493.925C694.894 494.067 695.272 494.298 695.613 494.617C695.954 494.933 696.226 495.352 696.428 495.874C696.631 496.396 696.732 497.039 696.732 497.803V498.335H690.425V497.249H695.453C695.453 496.787 695.361 496.375 695.176 496.013C694.995 495.651 694.736 495.365 694.399 495.155C694.065 494.946 693.671 494.841 693.216 494.841C692.716 494.841 692.282 494.965 691.917 495.214C691.554 495.459 691.276 495.778 691.08 496.173C690.885 496.567 690.787 496.989 690.787 497.44V498.165C690.787 498.783 690.894 499.306 691.107 499.736C691.323 500.162 691.624 500.487 692.007 500.711C692.391 500.931 692.836 501.041 693.344 501.041C693.674 501.041 693.973 500.995 694.239 500.903C694.509 500.807 694.741 500.665 694.937 500.477C695.132 500.285 695.283 500.047 695.39 499.763L696.604 500.104C696.476 500.516 696.261 500.878 695.959 501.19C695.658 501.499 695.285 501.741 694.841 501.915C694.397 502.085 693.898 502.17 693.344 502.17ZM701.194 493.818H702.451V500.828H705.541V493.818H706.798V500.828H709.887V493.818H711.144V502H701.194V493.818ZM719.421 502.17C718.632 502.17 717.952 501.996 717.38 501.648C716.812 501.297 716.374 500.807 716.065 500.178C715.759 499.546 715.607 498.811 715.607 497.973C715.607 497.135 715.759 496.396 716.065 495.757C716.374 495.114 716.803 494.614 717.354 494.255C717.908 493.893 718.554 493.712 719.293 493.712C719.719 493.712 720.14 493.783 720.555 493.925C720.971 494.067 721.349 494.298 721.69 494.617C722.031 494.933 722.302 495.352 722.505 495.874C722.707 496.396 722.808 497.039 722.808 497.803V498.335H716.502V497.249H721.53C721.53 496.787 721.438 496.375 721.253 496.013C721.072 495.651 720.813 495.365 720.475 495.155C720.141 494.946 719.747 494.841 719.293 494.841C718.792 494.841 718.359 494.965 717.993 495.214C717.631 495.459 717.352 495.778 717.157 496.173C716.961 496.567 716.864 496.989 716.864 497.44V498.165C716.864 498.783 716.97 499.306 717.183 499.736C717.4 500.162 717.7 500.487 718.084 500.711C718.467 500.931 718.913 501.041 719.421 501.041C719.751 501.041 720.049 500.995 720.315 500.903C720.585 500.807 720.818 500.665 721.013 500.477C721.209 500.285 721.36 500.047 721.466 499.763L722.681 500.104C722.553 500.516 722.338 500.878 722.036 501.19C721.734 501.499 721.361 501.741 720.917 501.915C720.474 502.085 719.975 502.17 719.421 502.17ZM732.747 497.334V498.506H728.229V497.334H732.747ZM728.528 493.818V502H727.271V493.818H728.528ZM733.705 493.818V502H732.448V493.818H733.705ZM739.808 500.146L743.75 493.818H745.199V502H743.942V495.672L740.021 502H738.551V493.818H739.808V500.146ZM754.973 502V494.969H752.8C752.31 494.969 751.925 495.082 751.644 495.31C751.364 495.537 751.223 495.849 751.223 496.247C751.223 496.638 751.349 496.945 751.601 497.169C751.857 497.392 752.207 497.504 752.651 497.504H755.293V498.676H752.651C752.097 498.676 751.619 498.578 751.218 498.383C750.817 498.188 750.508 497.909 750.291 497.547C750.074 497.181 749.966 496.748 749.966 496.247C749.966 495.743 750.08 495.31 750.307 494.947C750.534 494.585 750.859 494.306 751.282 494.111C751.708 493.916 752.214 493.818 752.8 493.818H756.166V502H754.973ZM749.519 502L751.841 497.93H753.205L750.882 502H749.519ZM766.919 504.344V500.828H767.601C767.768 500.654 767.912 500.466 768.033 500.263C768.153 500.061 768.258 499.821 768.347 499.544C768.439 499.264 768.517 498.923 768.581 498.522C768.645 498.117 768.702 497.629 768.752 497.057L769.029 493.818H774.228V500.828H775.485V504.344H774.228V502H768.176V504.344H766.919ZM769.029 500.828H772.971V494.99H770.201L769.988 497.057C769.899 497.913 769.789 498.66 769.657 499.299C769.526 499.939 769.316 500.448 769.029 500.828ZM778.979 502V500.828H779.277C779.522 500.828 779.726 500.78 779.89 500.684C780.053 500.585 780.184 500.413 780.284 500.168C780.387 499.919 780.465 499.575 780.518 499.134C780.575 498.69 780.616 498.126 780.641 497.44L780.79 493.818H786.244V502H784.987V494.99H781.983L781.855 497.909C781.827 498.58 781.767 499.172 781.674 499.683C781.585 500.191 781.449 500.617 781.264 500.961C781.083 501.306 780.841 501.565 780.54 501.739C780.238 501.913 779.86 502 779.405 502H778.979ZM796.023 502V494.969H793.85C793.359 494.969 792.974 495.082 792.694 495.31C792.413 495.537 792.273 495.849 792.273 496.247C792.273 496.638 792.399 496.945 792.651 497.169C792.907 497.392 793.257 497.504 793.7 497.504H796.342V498.676H793.7C793.146 498.676 792.669 498.578 792.268 498.383C791.866 498.188 791.557 497.909 791.341 497.547C791.124 497.181 791.016 496.748 791.016 496.247C791.016 495.743 791.129 495.31 791.357 494.947C791.584 494.585 791.909 494.306 792.331 494.111C792.758 493.916 793.264 493.818 793.85 493.818H797.216V502H796.023ZM790.568 502L792.891 497.93H794.254L791.932 502H790.568ZM812.166 502.17C811.399 502.17 810.739 501.989 810.185 501.627C809.631 501.265 809.205 500.766 808.906 500.13C808.608 499.495 808.459 498.768 808.459 497.952C808.459 497.121 808.612 496.387 808.917 495.752C809.226 495.113 809.656 494.614 810.206 494.255C810.76 493.893 811.406 493.712 812.145 493.712C812.72 493.712 813.239 493.818 813.701 494.031C814.162 494.244 814.54 494.543 814.835 494.926C815.13 495.31 815.313 495.757 815.384 496.268H814.127C814.031 495.896 813.818 495.565 813.487 495.278C813.161 494.987 812.72 494.841 812.166 494.841C811.676 494.841 811.247 494.969 810.877 495.224C810.512 495.477 810.226 495.833 810.02 496.295C809.817 496.753 809.716 497.291 809.716 497.909C809.716 498.541 809.816 499.092 810.014 499.56C810.217 500.029 810.501 500.393 810.867 500.652C811.236 500.912 811.669 501.041 812.166 501.041C812.493 501.041 812.79 500.984 813.056 500.871C813.322 500.757 813.548 500.594 813.732 500.381C813.917 500.168 814.049 499.912 814.127 499.614H815.384C815.313 500.097 815.137 500.532 814.856 500.919C814.579 501.302 814.212 501.608 813.754 501.835C813.299 502.059 812.77 502.17 812.166 502.17ZM819.127 494.99V493.818H825.775V494.99H823.09V502H821.833V494.99H819.127ZM832.141 502.192C831.623 502.192 831.152 502.094 830.73 501.899C830.307 501.7 829.972 501.414 829.723 501.041C829.474 500.665 829.35 500.21 829.35 499.678C829.35 499.209 829.442 498.829 829.627 498.538C829.812 498.243 830.059 498.012 830.367 497.845C830.676 497.678 831.017 497.554 831.39 497.472C831.767 497.387 832.145 497.32 832.525 497.27C833.022 497.206 833.425 497.158 833.734 497.126C834.046 497.091 834.274 497.032 834.416 496.95C834.561 496.869 834.634 496.727 834.634 496.524V496.482C834.634 495.956 834.49 495.548 834.203 495.256C833.919 494.965 833.487 494.82 832.908 494.82C832.308 494.82 831.838 494.951 831.497 495.214C831.156 495.477 830.916 495.757 830.778 496.055L829.584 495.629C829.797 495.132 830.082 494.745 830.437 494.468C830.795 494.187 831.186 493.992 831.609 493.882C832.035 493.768 832.454 493.712 832.866 493.712C833.128 493.712 833.43 493.744 833.771 493.808C834.116 493.868 834.448 493.994 834.767 494.186C835.09 494.377 835.359 494.667 835.572 495.054C835.785 495.441 835.891 495.96 835.891 496.609V502H834.634V500.892H834.57C834.485 501.07 834.343 501.26 834.144 501.462C833.945 501.664 833.681 501.837 833.35 501.979C833.02 502.121 832.617 502.192 832.141 502.192ZM832.333 501.062C832.83 501.062 833.249 500.965 833.59 500.77C833.935 500.574 834.194 500.322 834.368 500.013C834.545 499.704 834.634 499.379 834.634 499.038V497.888C834.581 497.952 834.464 498.01 834.283 498.064C834.105 498.113 833.899 498.158 833.665 498.197C833.434 498.232 833.208 498.264 832.988 498.293C832.772 498.317 832.596 498.339 832.461 498.357C832.134 498.399 831.829 498.468 831.545 498.564C831.264 498.657 831.037 498.797 830.863 498.985C830.692 499.17 830.607 499.422 830.607 499.741C830.607 500.178 830.769 500.509 831.092 500.732C831.419 500.952 831.832 501.062 832.333 501.062ZM846.212 497.334V498.506H841.695V497.334H846.212ZM841.993 493.818V502H840.736V493.818H841.993ZM847.17 493.818V502H845.913V493.818H847.17ZM852.016 502V493.818H853.273V497.376H854.104L857.045 493.818H858.664L855.361 497.76L858.707 502H857.087L854.403 498.548H853.273V502H852.016ZM865.61 502.17C864.871 502.17 864.223 501.995 863.666 501.643C863.112 501.292 862.678 500.8 862.366 500.168C862.057 499.536 861.902 498.797 861.902 497.952C861.902 497.099 862.057 496.355 862.366 495.72C862.678 495.084 863.112 494.591 863.666 494.239C864.223 493.887 864.871 493.712 865.61 493.712C866.348 493.712 866.995 493.887 867.549 494.239C868.106 494.591 868.539 495.084 868.848 495.72C869.161 496.355 869.317 497.099 869.317 497.952C869.317 498.797 869.161 499.536 868.848 500.168C868.539 500.8 868.106 501.292 867.549 501.643C866.995 501.995 866.348 502.17 865.61 502.17ZM865.61 501.041C866.171 501.041 866.633 500.897 866.995 500.61C867.357 500.322 867.625 499.944 867.799 499.475C867.973 499.006 868.06 498.499 868.06 497.952C868.06 497.405 867.973 496.895 867.799 496.423C867.625 495.951 867.357 495.569 866.995 495.278C866.633 494.987 866.171 494.841 865.61 494.841C865.049 494.841 864.587 494.987 864.225 495.278C863.863 495.569 863.595 495.951 863.421 496.423C863.246 496.895 863.159 497.405 863.159 497.952C863.159 498.499 863.246 499.006 863.421 499.475C863.595 499.944 863.863 500.322 864.225 500.61C864.587 500.897 865.049 501.041 865.61 501.041ZM873.786 502V493.818H877.131C878.012 493.818 878.712 494.017 879.23 494.415C879.748 494.812 880.008 495.338 880.008 495.991C880.008 496.489 879.86 496.874 879.566 497.147C879.271 497.417 878.893 497.6 878.431 497.696C878.733 497.739 879.026 497.845 879.31 498.016C879.598 498.186 879.835 498.42 880.024 498.719C880.212 499.013 880.306 499.376 880.306 499.805C880.306 500.224 880.199 500.599 879.986 500.929C879.773 501.26 879.468 501.521 879.07 501.712C878.672 501.904 878.197 502 877.643 502H873.786ZM874.979 500.849H877.643C878.076 500.849 878.415 500.746 878.66 500.54C878.905 500.335 879.028 500.054 879.028 499.699C879.028 499.276 878.905 498.944 878.66 498.703C878.415 498.458 878.076 498.335 877.643 498.335H874.979V500.849ZM874.979 497.249H877.131C877.469 497.249 877.758 497.202 878 497.11C878.241 497.014 878.426 496.879 878.554 496.705C878.685 496.528 878.751 496.318 878.751 496.077C878.751 495.732 878.607 495.462 878.319 495.267C878.032 495.068 877.636 494.969 877.131 494.969H874.979V497.249ZM894.852 502.17C894.085 502.17 893.424 501.989 892.87 501.627C892.316 501.265 891.89 500.766 891.592 500.13C891.293 499.495 891.144 498.768 891.144 497.952C891.144 497.121 891.297 496.387 891.602 495.752C891.911 495.113 892.341 494.614 892.891 494.255C893.445 493.893 894.092 493.712 894.83 493.712C895.406 493.712 895.924 493.818 896.386 494.031C896.847 494.244 897.226 494.543 897.52 494.926C897.815 495.31 897.998 495.757 898.069 496.268H896.812C896.716 495.896 896.503 495.565 896.173 495.278C895.846 494.987 895.406 494.841 894.852 494.841C894.362 494.841 893.932 494.969 893.563 495.224C893.197 495.477 892.911 495.833 892.705 496.295C892.502 496.753 892.401 497.291 892.401 497.909C892.401 498.541 892.501 499.092 892.7 499.56C892.902 500.029 893.186 500.393 893.552 500.652C893.921 500.912 894.354 501.041 894.852 501.041C895.178 501.041 895.475 500.984 895.741 500.871C896.007 500.757 896.233 500.594 896.418 500.381C896.602 500.168 896.734 499.912 896.812 499.614H898.069C897.998 500.097 897.822 500.532 897.542 500.919C897.265 501.302 896.897 501.608 896.439 501.835C895.984 502.059 895.455 502.17 894.852 502.17ZM909.502 491.091H910.823V494.734C910.823 495.274 910.917 495.699 911.106 496.007C911.294 496.313 911.56 496.529 911.905 496.657C912.249 496.782 912.656 496.844 913.125 496.844C913.419 496.844 913.705 496.833 913.982 496.812C914.259 496.787 914.529 496.753 914.792 496.711C915.058 496.668 915.317 496.616 915.569 496.556C915.825 496.496 916.076 496.428 916.321 496.354V497.547C916.083 497.621 915.846 497.689 915.612 497.749C915.381 497.81 915.14 497.861 914.888 497.904C914.639 497.946 914.371 497.98 914.083 498.005C913.796 498.026 913.476 498.037 913.125 498.037C912.372 498.037 911.724 497.929 911.18 497.712C910.64 497.495 910.225 497.146 909.934 496.663C909.646 496.18 909.502 495.537 909.502 494.734V491.091ZM916.15 491.091H917.471V502H916.15V491.091ZM930.829 491.091V502H929.508V492.263H924.011V502H922.69V491.091H930.829ZM936.619 502.149V500.913H937.301C937.564 500.913 937.784 500.862 937.961 500.759C938.142 500.656 938.292 500.523 938.409 500.359C938.529 500.196 938.629 500.026 938.707 499.848L938.877 499.443L935.106 491.091H936.534L939.538 497.866L942.287 491.091H943.693L939.922 500.232C939.772 500.572 939.602 500.888 939.41 501.18C939.222 501.471 938.964 501.705 938.638 501.883C938.315 502.06 937.876 502.149 937.322 502.149H936.619Z" fill="#4951F2"/>
</svg>
